<svg xmlns="http://www.w3.org/2000/svg" width="80" height="38" viewBox="0 0 80 38"><path fill="#FFF9DD" fill-rule="evenodd" d="M50.3065,34.1399 C50.5725,34.1259 50.8695,34.1149 51.1835,34.1729 C51.3435,34.2019 51.4905,34.2539 51.6215,34.3249 C51.7565,34.3989 51.8695,34.5019 51.9565,34.6299 C52.0455,34.7619 52.0905,34.9269 52.0905,35.1219 C52.0905,35.2499 52.0725,35.3649 52.0385,35.4649 C52.0035,35.5669 51.9485,35.6599 51.8745,35.7409 C51.8025,35.8189 51.7125,35.8909 51.6045,35.9549 C51.5095,36.0109 51.3985,36.0649 51.2755,36.1139 C51.2775,36.1179 51.2795,36.1229 51.2825,36.1279 C51.3125,36.1829 51.3565,36.2569 51.4145,36.3479 C51.4725,36.4399 51.5445,36.5469 51.6285,36.6639 C51.7135,36.7819 51.8135,36.9109 51.9265,37.0459 C52.0145,37.1529 52.0855,37.2379 52.1405,37.3009 C52.1915,37.3599 52.2375,37.4049 52.2775,37.4349 C52.3125,37.4609 52.3475,37.4789 52.3815,37.4869 C52.4215,37.4959 52.4755,37.5009 52.5435,37.5009 C52.6015,37.5009 52.6495,37.5349 52.6645,37.5879 C52.6705,37.6089 52.6735,37.6309 52.6735,37.6559 C52.6735,37.7729 52.5955,37.8249 52.5185,37.8249 C52.5065,37.8249 52.4935,37.8239 52.4785,37.8209 L52.4785,37.8209 L52.42675,37.82015 C52.4,37.8199 52.3645,37.8194 52.3225,37.8179 C52.2725,37.8159 52.2035,37.8159 52.1165,37.8159 L52.0487963,37.8159741 C52.0071667,37.8161222 51.9725,37.8165667 51.9445,37.8179 C51.8745,37.8209 51.8255,37.8189 51.8075,37.8209 C51.7565,37.8319 51.7175,37.8249 51.6905,37.8159 C51.6615,37.8059 51.6365,37.7859 51.6075,37.7519 C51.5025,37.6159 51.4035,37.4779 51.3115,37.3389 C51.2195,37.1989 51.1355,37.0679 51.0585,36.9449 C50.9815,36.8229 50.9125,36.7159 50.8515,36.6239 C50.7925,36.5349 50.7425,36.4689 50.7035,36.4269 C50.6625,36.3859 50.6215,36.3509 50.5845,36.3269 C50.5505,36.3049 50.5175,36.2889 50.4875,36.2799 C50.4565,36.2709 50.4235,36.2659 50.3905,36.2639 C50.3795,36.2639 50.3675,36.2639 50.3555,36.2629 L50.3555,36.2629 L50.3555,36.7669 C50.3555,36.8289 50.3565,36.8949 50.3575,36.9629 L50.3575,36.9629 L50.3625,37.1679 C50.3645,37.2359 50.3665,37.3009 50.3705,37.3619 C50.3705,37.3899 50.3725,37.4099 50.3785,37.4259 C50.3805,37.4329 50.3905,37.4409 50.3955,37.4449 C50.4035,37.4509 50.4255,37.4629 50.4825,37.4729 C50.5315,37.4819 50.6035,37.4869 50.6955,37.4869 C50.7855,37.4869 50.8535,37.4969 50.8915,37.5449 C50.9165,37.5779 50.9285,37.6179 50.9285,37.6659 C50.9285,37.6999 50.9265,37.7239 50.9195,37.7449 C50.9125,37.7639 50.8845,37.8249 50.7935,37.8249 C50.7805,37.8249 50.7655,37.8239 50.7485,37.8219 C50.7215,37.8189 50.6245,37.8209 50.4345,37.8179 C50.3335,37.8159 50.1935,37.8159 50.0145,37.8159 L49.8991875,37.8159312 C49.7908125,37.816025 49.70325,37.8164 49.6365,37.8179 C49.4685,37.8209 49.3845,37.8189 49.3605,37.8219 C49.3425,37.8239 49.3265,37.8249 49.3135,37.8249 C49.2225,37.8249 49.1945,37.7639 49.1885,37.7449 C49.1815,37.7239 49.1785,37.6999 49.1785,37.6659 C49.1785,37.6179 49.1915,37.5769 49.2165,37.5449 C49.2545,37.4969 49.3215,37.4869 49.4115,37.4869 C49.4835,37.4869 49.5385,37.4819 49.5775,37.4739 C49.6195,37.4649 49.6345,37.4539 49.6385,37.4509 C49.6505,37.4399 49.6545,37.4319 49.6555,37.4269 C49.6615,37.4099 49.6635,37.3899 49.6635,37.3669 C49.6675,37.3009 49.6695,37.2359 49.6715,37.1679 L49.6715,37.1679 L49.6765,36.9629 C49.6775,36.8949 49.6785,36.8299 49.6785,36.7669 L49.6785,36.7669 L49.6785,35.1689 C49.6785,35.1099 49.6775,35.0549 49.6765,35.0049 L49.6765,35.0049 L49.6715,34.8579 C49.6695,34.8099 49.6685,34.7579 49.6685,34.7009 C49.6685,34.6229 49.6605,34.5779 49.6535,34.5539 C49.6435,34.5239 49.6305,34.5109 49.6215,34.5049 C49.6085,34.4959 49.5815,34.4829 49.5305,34.4779 C49.4775,34.4719 49.4075,34.4679 49.3235,34.4679 C49.2205,34.4679 49.1915,34.3969 49.1855,34.3749 C49.1775,34.3509 49.1735,34.3219 49.1735,34.2889 C49.1735,34.2579 49.1805,34.2289 49.1935,34.2019 C49.2165,34.1569 49.2615,34.1299 49.3135,34.1299 C49.3235,34.1299 49.3525,34.1299 49.4005,34.1319 C49.4465,34.1339 49.5025,34.1359 49.5685,34.1399 C49.6335,34.1429 49.7045,34.1449 49.7815,34.1469 C49.8595,34.1479 49.9365,34.1489 50.0145,34.1489 L50.0688438,34.1483375 C50.1295,34.1472125 50.209,34.1444 50.3065,34.1399 Z M40.4135,33.9235 C40.4335,33.9235 40.4545,33.9255 40.4765,33.9305 C40.5295,33.9425 40.5675,33.9845 40.5775,34.0425 C40.5835,34.0895 40.5935,34.1105 40.5985,34.1195 C40.6025,34.1265 40.6065,34.1305 40.6145,34.1345 C40.6265,34.1395 40.6485,34.1455 40.6895,34.1465 C40.7325,34.1485 40.7865,34.1495 40.8505,34.1495 L40.8505,34.1495 L42.9425,34.1495 C42.9735,34.1495 42.9985,34.1515 43.0195,34.1565 C43.0765,34.1715 43.1125,34.2195 43.1125,34.2795 C43.1125,34.3115 43.1045,34.3435 43.0885,34.3725 L43.0885,34.3725 L43.068875,34.402375 C43.05875,34.417 43.044,34.4375 43.0215,34.4675 C42.9905,34.5075 42.9465,34.5675 42.8875,34.6475 C42.8295,34.7275 42.7495,34.8375 42.6485,34.9775 C42.5265,35.1475 42.3965,35.3275 42.2605,35.5105 C42.1225,35.6955 41.9895,35.8735 41.8605,36.0445 C41.7315,36.2165 41.6115,36.3735 41.5015,36.5165 C41.3935,36.6575 41.3075,36.7705 41.2465,36.8545 C41.1145,37.0295 41.0135,37.1635 40.9415,37.2575 C40.8705,37.3515 40.8185,37.4215 40.7865,37.4665 C40.7835,37.4705 40.7815,37.4735 40.7795,37.4765 L40.7795,37.4765 L41.001463,37.4762037 C41.0507222,37.4758333 41.1051667,37.4751667 41.1645,37.4745 L41.1645,37.4745 L41.7375,37.4645 C41.8305,37.4625 41.9155,37.4605 41.9935,37.4575 C42.0685,37.4545 42.1275,37.4495 42.1695,37.4435 C42.2245,37.4375 42.2765,37.4265 42.3255,37.4105 C42.3715,37.3955 42.4215,37.3695 42.4735,37.3325 C42.5275,37.2945 42.5865,37.2395 42.6485,37.1705 C42.7125,37.0985 42.7865,37.0045 42.8705,36.8895 C42.9205,36.8155 42.9425,36.7905 42.9555,36.7775 C42.9895,36.7435 43.0385,36.7265 43.1045,36.7265 C43.1305,36.7265 43.1575,36.7345 43.1835,36.7485 L43.1835,36.7485 C43.2255,36.7735 43.2495,36.8145 43.2495,36.8615 C43.2495,36.8805 43.2465,36.8955 43.2155,36.9905 C43.1955,37.0495 43.1705,37.1205 43.1405,37.2035 C43.1115,37.2855 43.0805,37.3705 43.0475,37.4585 L43.0475,37.4585 L42.9645,37.6845 C42.9215,37.8025 42.8325,37.8155 42.7955,37.8155 L42.7955,37.8155 L40.5739074,37.8158333 C40.5185,37.8162778 40.4718333,37.8171667 40.4345,37.8185 C40.3195,37.8215 40.2395,37.8195 40.1685,37.8225 C40.1315,37.8245 40.0855,37.8255 40.0315,37.8255 C39.9585,37.8255 39.9315,37.8215 39.9155,37.8185 C39.8685,37.8095 39.8135,37.7685 39.8135,37.6855 C39.8135,37.6345 39.8375,37.5765 39.8905,37.5045 C39.9315,37.4475 39.9975,37.3625 40.0865,37.2505 L40.0865,37.2505 L40.4445,36.8025 C40.5925,36.6175 40.7765,36.3775 40.9945,36.0885 C41.2185,35.7875 41.4155,35.5265 41.5775,35.3135 C41.7375,35.1045 41.8675,34.9345 41.9675,34.8025 C42.0675,34.6685 42.1375,34.5725 42.1795,34.5095 C42.1845,34.5015 42.1895,34.4945 42.1945,34.4875 L42.1945,34.4875 L41.8856406,34.4876875 C41.750875,34.4880625 41.63425,34.489 41.5345,34.4905 C41.4035,34.4925 41.2915,34.4955 41.2005,34.5005 C41.1125,34.5045 41.0365,34.5125 40.9775,34.5235 C40.9215,34.5335 40.8695,34.5485 40.8245,34.5685 C40.7605,34.5945 40.7055,34.6275 40.6595,34.6665 C40.6115,34.7075 40.5675,34.7535 40.5295,34.8035 C40.4905,34.8545 40.4555,34.9095 40.4255,34.9675 C40.3935,35.0295 40.3635,35.0925 40.3345,35.1565 C40.2975,35.2325 40.2355,35.2725 40.1595,35.2725 C40.1325,35.2725 40.1065,35.2675 40.0825,35.2595 C40.0285,35.2415 39.9945,35.1965 39.9945,35.1415 C39.9945,35.1265 39.9945,35.1135 40.0325,34.9785 C40.0555,34.8975 40.0815,34.8015 40.1105,34.6905 L40.1105,34.6905 L40.2015,34.3475 C40.2315,34.2325 40.2555,34.1325 40.2705,34.0505 C40.2895,33.9565 40.3575,33.9235 40.4135,33.9235 Z M23.2227,34.1314 C23.4387,34.1294 23.6027,34.1254 23.6897,34.1344 C23.7877,34.1454 23.8187,34.2074 23.8277,34.2344 C23.8927,34.4604 23.9447,34.6274 23.9837,34.7344 C24.0427,34.9014 24.0477,34.9324 24.0477,34.9554 C24.0477,34.9774 24.0397,35.0854 23.8787,35.0854 C23.8477,35.0854 23.8017,35.0764 23.7547,35.0334 C23.7327,35.0134 23.7027,34.9814 23.6637,34.9384 C23.6297,34.8984 23.5807,34.8474 23.5187,34.7854 C23.4577,34.7244 23.3737,34.6484 23.2677,34.5584 C23.2387,34.5314 23.2017,34.5114 23.1567,34.4944 C23.1097,34.4774 23.0547,34.4684 22.9917,34.4684 C22.9587,34.4684 22.9127,34.4694 22.8517,34.4704 C22.7907,34.4724 22.7227,34.4744 22.6497,34.4784 L22.6497,34.4784 L22.4347,34.4874 C22.3657,34.4914 22.3077,34.4944 22.2627,34.4974 C22.2487,34.4984 22.2417,34.4984 22.2337,34.5214 C22.2247,34.5474 22.2097,34.6144 22.2097,34.7794 L22.2097,34.7794 L22.2097,35.8104 L22.4427,35.8104 C22.5637,35.8104 22.6587,35.8004 22.7257,35.7804 C22.8067,35.7564 22.8477,35.7324 22.8677,35.7154 C22.9037,35.6874 22.9097,35.6714 22.9097,35.6704 C22.9177,35.6474 22.9237,35.6294 22.9267,35.6174 C22.9397,35.5244 22.9517,35.4554 22.9637,35.4044 C22.9757,35.3534 22.9857,35.3154 22.9927,35.2914 C23.0027,35.2544 23.0197,35.2134 23.0617,35.1934 C23.0817,35.1834 23.1037,35.1784 23.1287,35.1784 C23.2987,35.1784 23.3177,35.2694 23.3177,35.3084 L23.3177,35.3084 L23.3177,36.0434 C23.3177,36.1874 23.3217,36.3044 23.3297,36.3904 C23.3377,36.4824 23.3417,36.5624 23.3417,36.6264 C23.3417,36.6824 23.3107,36.7294 23.2607,36.7484 C23.2367,36.7574 23.2097,36.7614 23.1827,36.7614 C23.1607,36.7614 23.0937,36.7614 23.0527,36.7124 C23.0337,36.6904 23.0217,36.6624 23.0147,36.6304 C22.9957,36.5004 22.9747,36.4014 22.9537,36.3314 C22.9367,36.2744 22.9117,36.2334 22.8817,36.2084 C22.8507,36.1834 22.8067,36.1674 22.7507,36.1604 C22.6787,36.1534 22.5847,36.1494 22.4717,36.1494 L22.4717,36.1494 L22.2097,36.1494 L22.2097,37.3174 C22.2097,37.4174 22.2317,37.4464 22.2367,37.4514 C22.2407,37.4554 22.2637,37.4764 22.3547,37.4764 L22.3547,37.4764 L23.5207,37.4764 C23.5277,37.4764 23.5557,37.4724 23.6077,37.4254 C23.6597,37.3784 23.7117,37.3224 23.7617,37.2604 C23.8137,37.1964 23.8617,37.1304 23.9067,37.0654 C23.9547,36.9954 23.9907,36.9444 24.0187,36.9094 L24.0187,36.9094 L24.0257,36.9014 C24.0737,36.8544 24.1237,36.8444 24.1577,36.8444 C24.3197,36.8444 24.3317,36.9444 24.3317,36.9744 C24.3317,36.9834 24.33095,36.9909 24.32745,37.004025 L24.3067,37.0674 L24.2577,37.2074 C24.2377,37.2634 24.2157,37.3244 24.1907,37.3884 C24.1657,37.4534 24.1417,37.5134 24.1187,37.5684 C24.0947,37.6244 24.0737,37.6714 24.0547,37.7084 C24.0377,37.7434 24.0017,37.8154 23.9277,37.8154 L23.9277,37.8154 L21.7769344,37.8155875 C21.6576375,37.8159625 21.5607,37.8169 21.4857,37.8184 C21.2987,37.8214 21.2007,37.8194 21.1757,37.8224 C21.1577,37.8244 21.1417,37.8254 21.1287,37.8254 C21.0377,37.8254 21.0097,37.7634 21.0037,37.7444 C20.9967,37.7254 20.9937,37.7004 20.9937,37.6654 C20.9937,37.6224 21.0017,37.5874 21.0187,37.5574 C21.0577,37.4864 21.1527,37.4864 21.1927,37.4864 C21.2847,37.4864 21.3567,37.4824 21.4067,37.4734 C21.4607,37.4634 21.4837,37.4514 21.4927,37.4454 C21.5017,37.4384 21.5087,37.4314 21.5107,37.4264 C21.5157,37.4094 21.5187,37.3894 21.5187,37.3664 C21.5217,37.3004 21.5237,37.2364 21.5257,37.1684 L21.5257,37.1684 L21.5307,36.9624 C21.5317,36.8944 21.5327,36.8294 21.5327,36.7664 L21.532075,35.08315 L21.532075,35.08315 L21.5307,35.0054 L21.5257,34.8584 C21.5237,34.8104 21.5227,34.7574 21.5227,34.7004 C21.5227,34.6244 21.5137,34.5804 21.5057,34.5574 C21.4957,34.5254 21.4807,34.5134 21.4697,34.5064 C21.4557,34.4964 21.4267,34.4834 21.3687,34.4774 C21.3097,34.4714 21.2327,34.4684 21.1387,34.4684 C21.0367,34.4684 21.0067,34.3974 21.0007,34.3754 C20.9927,34.3504 20.9887,34.3214 20.9887,34.2894 C20.9887,34.2574 20.9957,34.2284 21.0087,34.2014 C21.0317,34.1564 21.0767,34.1294 21.1287,34.1294 C21.1387,34.1294 21.1707,34.1304 21.2247,34.1314 C21.2777,34.1334 21.3417,34.1364 21.4177,34.1394 C21.4917,34.1424 21.5717,34.1454 21.6577,34.1464 C21.7437,34.1484 21.8257,34.1494 21.9037,34.1494 C22.0467,34.1494 22.1957,34.1484 22.3507,34.1464 C22.5057,34.1454 22.6567,34.1424 22.8057,34.1394 C22.9547,34.1364 23.0937,34.1334 23.2227,34.1314 Z M35.7833,33.9235 C35.8023,33.9235 35.8233,33.9255 35.8453,33.9305 C35.8983,33.9425 35.9363,33.9845 35.9463,34.0425 C35.9523,34.0895 35.9623,34.1105 35.9673,34.1195 C35.9713,34.1265 35.9753,34.1305 35.9833,34.1345 C35.9953,34.1395 36.0173,34.1455 36.0583,34.1465 C36.1013,34.1485 36.1553,34.1495 36.2193,34.1495 L36.2193,34.1495 L38.3113,34.1495 C38.3423,34.1495 38.3673,34.1515 38.3883,34.1565 C38.4453,34.1715 38.4813,34.2195 38.4813,34.2795 C38.4813,34.3115 38.4733,34.3435 38.4573,34.3725 L38.4573,34.3725 L38.437675,34.402375 C38.42755,34.417 38.4128,34.4375 38.3903,34.4675 C38.3593,34.5075 38.3153,34.5675 38.2563,34.6475 C38.1983,34.7275 38.1183,34.8375 38.0173,34.9775 C37.8953,35.1475 37.7653,35.3275 37.6293,35.5105 C37.4913,35.6955 37.3583,35.8735 37.2293,36.0445 C37.1003,36.2165 36.9803,36.3735 36.8713,36.5165 C36.7623,36.6575 36.6763,36.7705 36.6153,36.8545 C36.4833,37.0295 36.3823,37.1635 36.3103,37.2575 C36.2393,37.3515 36.1873,37.4215 36.1553,37.4665 C36.1523,37.4705 36.1503,37.4735 36.1483,37.4765 L36.1483,37.4765 L36.370263,37.4762037 C36.4195222,37.4758333 36.4739667,37.4751667 36.5333,37.4745 L36.5333,37.4745 L37.1063,37.4645 C37.1993,37.4625 37.2843,37.4605 37.3613,37.4575 C37.4363,37.4545 37.4963,37.4495 37.5383,37.4435 C37.5933,37.4375 37.6453,37.4265 37.6943,37.4105 C37.7403,37.3955 37.7903,37.3695 37.8423,37.3325 C37.8963,37.2945 37.9553,37.2395 38.0173,37.1705 C38.0813,37.0985 38.1553,37.0045 38.2393,36.8895 C38.2893,36.8155 38.3113,36.7905 38.3243,36.7775 C38.3583,36.7435 38.4073,36.7265 38.4733,36.7265 C38.4993,36.7265 38.5263,36.7345 38.5523,36.7485 L38.5523,36.7485 C38.5943,36.7735 38.6183,36.8145 38.6183,36.8615 C38.6183,36.8805 38.6153,36.8955 38.5843,36.9905 C38.5643,37.0495 38.5393,37.1205 38.5093,37.2035 C38.4803,37.2855 38.4493,37.3705 38.4163,37.4585 L38.4163,37.4585 L38.3333,37.6845 C38.2903,37.8025 38.2013,37.8155 38.1643,37.8155 L38.1643,37.8155 L35.9427074,37.8158333 C35.8873,37.8162778 35.8406333,37.8171667 35.8033,37.8185 C35.6883,37.8215 35.6083,37.8195 35.5373,37.8225 C35.5003,37.8245 35.4543,37.8255 35.4003,37.8255 C35.3273,37.8255 35.3003,37.8215 35.2843,37.8185 C35.2373,37.8095 35.1823,37.7685 35.1823,37.6855 C35.1823,37.6345 35.2063,37.5765 35.2593,37.5045 C35.3003,37.4475 35.3663,37.3625 35.4553,37.2505 L35.4553,37.2505 L35.8133,36.8025 C35.9613,36.6175 36.1453,36.3775 36.3633,36.0885 C36.5873,35.7875 36.7843,35.5265 36.9463,35.3135 C37.1063,35.1045 37.2363,34.9345 37.3363,34.8025 C37.4363,34.6685 37.5063,34.5725 37.5483,34.5095 C37.5543,34.5015 37.5583,34.4945 37.5633,34.4875 L37.5633,34.4875 L37.2543,34.4876875 C37.1193,34.4880625 37.0023,34.489 36.9033,34.4905 C36.7723,34.4925 36.6603,34.4955 36.5693,34.5005 C36.4813,34.5045 36.4053,34.5125 36.3463,34.5235 C36.2903,34.5335 36.2383,34.5485 36.1933,34.5685 C36.1293,34.5945 36.0743,34.6275 36.0283,34.6665 C35.9803,34.7075 35.9363,34.7535 35.8983,34.8035 C35.8593,34.8545 35.8243,34.9095 35.7943,34.9675 C35.7623,35.0295 35.7323,35.0925 35.7033,35.1565 C35.6663,35.2325 35.6043,35.2725 35.5283,35.2725 C35.5013,35.2725 35.4753,35.2675 35.4513,35.2595 C35.3973,35.2415 35.3633,35.1965 35.3633,35.1415 C35.3633,35.1265 35.3633,35.1135 35.4013,34.9785 C35.4243,34.8975 35.4503,34.8015 35.4793,34.6905 L35.4793,34.6905 L35.5703,34.3475 C35.6003,34.2325 35.6243,34.1325 35.6393,34.0505 C35.6583,33.9565 35.7263,33.9235 35.7833,33.9235 Z M27.9712,34.1297 C27.9812,34.1297 28.0102,34.1307 28.0582,34.1317 C28.1042,34.1337 28.1602,34.1357 28.2262,34.1397 C28.2902,34.1427 28.3612,34.1447 28.4382,34.1467 C28.5162,34.1487 28.5942,34.1487 28.6722,34.1487 L28.7168667,34.1481074 L28.7168667,34.1481074 L28.7592,34.1467 C28.8092,34.1447 28.8682,34.1427 28.9372,34.1397 C29.0062,34.1357 29.0792,34.1337 29.1552,34.1317 C29.2312,34.1307 29.3012,34.1297 29.3682,34.1297 C29.5712,34.1297 29.7492,34.1507 29.8962,34.1917 C30.0432,34.2327 30.1702,34.2867 30.2742,34.3527 C30.3792,34.4187 30.4652,34.4937 30.5292,34.5757 C30.5912,34.6547 30.6392,34.7357 30.6742,34.8147 L30.6742,34.8147 L30.704237,34.8925519 C30.7216444,34.9435889 30.7338667,34.9927 30.7412,35.0387 C30.7522,35.1057 30.7572,35.1577 30.7572,35.1957 C30.7572,35.3847 30.7262,35.5527 30.6642,35.6967 C30.6012,35.8417 30.5112,35.9647 30.3982,36.0627 C30.2852,36.1587 30.1512,36.2317 29.9992,36.2797 C29.8502,36.3267 29.6852,36.3507 29.5102,36.3507 C29.4092,36.3507 29.3082,36.3467 29.2092,36.3397 C29.1452,36.3357 29.0792,36.3287 29.0132,36.3187 L29.0132,36.3187 L29.0137926,36.8903296 L29.0137926,36.8903296 L29.0152,36.9727 C29.0172,37.0467 29.0182,37.1057 29.0202,37.1477 C29.0222,37.1907 29.0222,37.2317 29.0222,37.2687 C29.0252,37.3057 29.0312,37.3447 29.0392,37.3777 C29.0422,37.3897 29.0482,37.4047 29.0712,37.4217 C29.0882,37.4337 29.1232,37.4517 29.1942,37.4667 C29.2572,37.4797 29.3502,37.4867 29.4702,37.4867 C29.5602,37.4867 29.6282,37.4967 29.6662,37.5457 C29.6912,37.5777 29.7042,37.6177 29.7042,37.6657 C29.7042,37.6997 29.7012,37.7237 29.6942,37.7447 C29.6872,37.7647 29.6592,37.8257 29.5692,37.8257 C29.5582,37.8257 29.5382,37.8247 29.5092,37.8227 C29.4572,37.8197 29.3362,37.8207 29.1112,37.8177 C28.9972,37.8167 28.8512,37.8157 28.6722,37.8157 L28.5452938,37.8158719 C28.4257625,37.8162 28.32845,37.81695 28.2542,37.8177 C28.0672,37.8207 27.9692,37.8187 27.9442,37.8217 C27.9262,37.8247 27.9102,37.8257 27.8972,37.8257 C27.8062,37.8257 27.7782,37.7637 27.7722,37.7447 C27.7652,37.7247 27.7622,37.6997 27.7622,37.6657 C27.7622,37.6177 27.7752,37.5777 27.8002,37.5457 C27.8382,37.4967 27.9052,37.4867 27.9952,37.4867 C28.0872,37.4867 28.1592,37.4817 28.2092,37.4737 C28.2632,37.4637 28.2862,37.4517 28.2952,37.4457 C28.3052,37.4387 28.3112,37.4317 28.3132,37.4267 C28.3182,37.4097 28.3212,37.3897 28.3212,37.3667 C28.3242,37.3007 28.3272,37.2357 28.3282,37.1677 L28.3282,37.1677 L28.3332,36.9627 C28.3352,36.8947 28.3362,36.8297 28.3362,36.7667 L28.3362,36.7667 L28.3362,35.1687 C28.3362,35.1097 28.3352,35.0547 28.3332,35.0047 L28.3332,35.0047 L28.3282,34.8577 C28.3272,34.8097 28.3262,34.7577 28.3262,34.7007 C28.3262,34.6237 28.3172,34.5777 28.3102,34.5537 C28.3012,34.5237 28.2882,34.5117 28.2782,34.5047 C28.2652,34.4957 28.2392,34.4837 28.1882,34.4777 C28.1342,34.4717 28.0642,34.4687 27.9812,34.4687 C27.8782,34.4687 27.8492,34.3967 27.8422,34.3747 C27.8352,34.3507 27.8312,34.3217 27.8312,34.2887 C27.8312,34.2577 27.8372,34.2287 27.8512,34.2027 C27.8742,34.1567 27.9182,34.1297 27.9712,34.1297 Z M58.5323,34.0805 C58.5713,34.0805 58.6003,34.0855 58.6243,34.0975 C58.6643,34.1175 58.6863,34.1585 58.7033,34.1965 C58.7124667,34.2165833 58.7291333,34.2595 58.7833,34.4045 C58.8293,34.5275 58.8863,34.6835 58.9553,34.8715 C59.0243,35.0585 59.1013,35.2665 59.1883,35.4945 C59.2743,35.7235 59.3613,35.9505 59.4473,36.1755 C59.5343,36.4015 59.6163,36.6145 59.6953,36.8145 C59.7723,37.0145 59.8413,37.1805 59.8983,37.3075 C59.9293,37.3795 59.9653,37.4285 60.0033,37.4505 C60.0453,37.4745 60.1063,37.4865 60.1833,37.4865 C60.2133,37.4865 60.2493,37.4915 60.2943,37.5005 L60.2943,37.5005 C60.4143,37.5275 60.4263,37.6045 60.4263,37.6365 C60.4263,37.6615 60.4223,37.6895 60.4133,37.7215 C60.3943,37.7855 60.3423,37.8255 60.2773,37.8255 C60.2613,37.8255 60.2433,37.8245 60.2233,37.8225 C60.1913,37.8195 60.1033,37.8205 59.9423,37.8175 C59.8573,37.8165 59.7423,37.8155 59.5953,37.8155 L59.4777375,37.8156719 C59.3671125,37.816 59.2773,37.81675 59.2083,37.8175 C59.0313,37.8205 58.9403,37.8195 58.9133,37.8225 C58.8933,37.8245 58.8783,37.8255 58.8653,37.8255 C58.8223,37.8255 58.7663,37.7985 58.7513,37.7235 C58.7473,37.7005 58.7453,37.6735 58.7453,37.6415 C58.7453,37.6125 58.7553,37.5175 58.8933,37.4975 C58.9413,37.4905 58.9933,37.4865 59.0463,37.4865 C59.1513,37.4865 59.1943,37.4775 59.2103,37.4725 C59.2083,37.4585 59.2013,37.4215 59.1693,37.3265 C59.1383,37.2365 59.1013,37.1385 59.0603,37.0345 C59.0183,36.9265 58.9763,36.8225 58.9353,36.7215 C58.9083,36.6535 58.8863,36.5975 58.8683,36.5515 L58.8683,36.5515 L57.9243,36.5515 C57.8723,36.5515 57.8433,36.5535 57.8293,36.5555 C57.8263,36.5615 57.8203,36.5735 57.8133,36.5915 C57.7623,36.7235 57.7183,36.8395 57.6843,36.9375 C57.6503,37.0345 57.6223,37.1165 57.6023,37.1825 C57.5813,37.2455 57.5673,37.2965 57.5603,37.3345 C57.5513,37.3805 57.5503,37.3995 57.5503,37.4055 C57.5503,37.4175 57.5513,37.4305 57.5533,37.4435 C57.5533,37.4465 57.5553,37.4505 57.5603,37.4555 C57.5603,37.4555 57.5673,37.4635 57.5933,37.4735 C57.6063,37.4785 57.6393,37.4865 57.7093,37.4865 C57.7823,37.4865 57.8423,37.4885 57.8873,37.4915 C57.9363,37.4955 57.9713,37.4995 57.9973,37.5065 C58.0153,37.5105 58.0693,37.5225 58.0973,37.5695 C58.1113,37.5935 58.1183,37.6205 58.1183,37.6505 C58.1183,37.6985 58.1113,37.7325 58.0963,37.7595 C58.0783,37.7895 58.0423,37.8255 57.9633,37.8255 C57.9513,37.8255 57.9353,37.8245 57.9133,37.8225 C57.8783,37.8195 57.7863,37.8205 57.6233,37.8175 C57.5393,37.8165 57.4233,37.8155 57.2773,37.8155 L57.2083,37.8157963 C57.1656333,37.8161667 57.1296333,37.8168333 57.1003,37.8175 C57.0153,37.8205 56.9603,37.8185 56.9373,37.8225 C56.9183,37.8245 56.9033,37.8255 56.8903,37.8255 C56.8593,37.8255 56.7603,37.8125 56.7603,37.6455 C56.7603,37.6175 56.7703,37.5485 56.8613,37.5105 C56.9013,37.4945 56.9573,37.4865 57.0373,37.4865 C57.0603,37.4865 57.0853,37.4755 57.1113,37.4545 C57.1283,37.4405 57.1613,37.4025 57.1963,37.3015 C57.3473,36.8625 57.5193,36.3795 57.7073,35.8635 C57.8943,35.3485 58.1103,34.7855 58.3483,34.1885 C58.3713,34.1165 58.4183,34.0945 58.4453,34.0885 C58.4663,34.0825 58.4943,34.0805 58.5323,34.0805 Z M32.249,34.1293 C32.26,34.1293 32.291,34.1303 32.346,34.1323 C32.398,34.1333 32.462,34.1363 32.538,34.1393 C32.612,34.1423 32.692,34.1453 32.778,34.1463 C32.95,34.1503 33.097,34.1503 33.269,34.1463 C33.355,34.1453 33.436,34.1423 33.512,34.1393 C33.589,34.1363 33.654,34.1333 33.707,34.1323 C33.761,34.1303 33.793,34.1293 33.803,34.1293 C33.855,34.1293 33.9,34.1563 33.923,34.2023 C33.936,34.2293 33.943,34.2583 33.943,34.2893 C33.943,34.3213 33.939,34.3503 33.931,34.3753 C33.925,34.3973 33.896,34.4683 33.793,34.4683 C33.689,34.4683 33.605,34.4713 33.543,34.4773 C33.48,34.4843 33.446,34.4983 33.429,34.5083 C33.411,34.5193 33.399,34.5343 33.392,34.5573 C33.384,34.5803 33.375,34.6243 33.375,34.7003 C33.375,34.7573 33.374,34.8103 33.372,34.8583 L33.372,34.8583 L33.367,35.0053 C33.365,35.0553 33.365,35.1093 33.365,35.1683 L33.36525,36.8628 L33.36525,36.8628 L33.367,36.9623 L33.372,37.1683 C33.374,37.2363 33.376,37.3003 33.379,37.3623 C33.379,37.3893 33.382,37.4093 33.387,37.4263 C33.389,37.4313 33.395,37.4383 33.405,37.4453 C33.412,37.4503 33.435,37.4633 33.491,37.4733 C33.541,37.4823 33.613,37.4863 33.705,37.4863 C33.795,37.4863 33.862,37.4963 33.901,37.5453 C33.926,37.5773 33.938,37.6183 33.938,37.6653 C33.938,37.6993 33.935,37.7243 33.928,37.7443 C33.922,37.7633 33.895,37.8253 33.803,37.8253 C33.79,37.8253 33.774,37.8243 33.757,37.8223 C33.73,37.8193 33.633,37.8213 33.444,37.8183 C33.343,37.8163 33.203,37.8153 33.024,37.8153 L32.8972344,37.8154875 C32.7779375,37.8158625 32.681,37.8168 32.606,37.8183 C32.42,37.8213 32.322,37.8193 32.296,37.8223 C32.278,37.8243 32.262,37.8253 32.249,37.8253 C32.158,37.8253 32.13,37.7633 32.124,37.7453 C32.117,37.7253 32.114,37.7003 32.114,37.6653 C32.114,37.6173 32.127,37.5773 32.152,37.5453 C32.19,37.4963 32.257,37.4863 32.347,37.4863 C32.439,37.4863 32.511,37.4823 32.561,37.4733 C32.617,37.4633 32.64,37.4503 32.647,37.4453 C32.657,37.4383 32.663,37.4313 32.665,37.4263 C32.67,37.4093 32.673,37.3893 32.673,37.3663 C32.676,37.3003 32.679,37.2363 32.68,37.1683 L32.68,37.1683 L32.685,36.9623 C32.687,36.8953 32.688,36.8293 32.688,36.7663 L32.688,36.7663 L32.688,35.1683 C32.688,35.1093 32.687,35.0553 32.685,35.0053 L32.685,35.0053 L32.68,34.8583 C32.679,34.8103 32.678,34.7573 32.678,34.7003 C32.678,34.6243 32.668,34.5803 32.661,34.5573 C32.653,34.5343 32.642,34.5193 32.623,34.5083 C32.606,34.4983 32.572,34.4843 32.509,34.4773 C32.447,34.4713 32.363,34.4683 32.259,34.4683 C32.157,34.4683 32.127,34.3973 32.121,34.3753 C32.113,34.3503 32.109,34.3213 32.109,34.2893 C32.109,34.2573 32.116,34.2283 32.129,34.2023 C32.152,34.1563 32.197,34.1293 32.249,34.1293 Z M53.9545,34.1293 C53.9655,34.1293 53.9965,34.1303 54.0515,34.1323 C54.1035,34.1333 54.1675,34.1363 54.2435,34.1393 C54.3175,34.1423 54.3975,34.1453 54.4835,34.1463 C54.6555,34.1503 54.8025,34.1503 54.9745,34.1463 C55.0605,34.1453 55.1415,34.1423 55.2175,34.1393 C55.2945,34.1363 55.3595,34.1333 55.4125,34.1323 C55.4665,34.1303 55.4985,34.1293 55.5085,34.1293 C55.5605,34.1293 55.6055,34.1563 55.6285,34.2023 C55.6415,34.2293 55.6485,34.2583 55.6485,34.2893 C55.6485,34.3213 55.6445,34.3503 55.6365,34.3753 C55.6305,34.3973 55.6015,34.4683 55.4985,34.4683 C55.3945,34.4683 55.3105,34.4713 55.2485,34.4773 C55.1855,34.4843 55.1515,34.4983 55.1345,34.5083 C55.1165,34.5193 55.1045,34.5343 55.0965,34.5573 C55.0895,34.5803 55.0795,34.6243 55.0795,34.7003 C55.0795,34.7573 55.0795,34.8103 55.0775,34.8583 L55.0775,34.8583 L55.0725,35.0053 C55.0705,35.0553 55.0705,35.1093 55.0705,35.1683 L55.07075,36.8628 L55.07075,36.8628 L55.0725,36.9623 L55.0775,37.1683 C55.0795,37.2363 55.0815,37.3003 55.0845,37.3623 C55.0845,37.3893 55.0875,37.4093 55.0925,37.4263 C55.0945,37.4313 55.1005,37.4383 55.1105,37.4453 C55.1175,37.4503 55.1405,37.4633 55.1965,37.4733 C55.2465,37.4823 55.3185,37.4863 55.4105,37.4863 C55.5005,37.4863 55.5675,37.4963 55.6055,37.5453 C55.6305,37.5773 55.6435,37.6183 55.6435,37.6653 C55.6435,37.6993 55.6405,37.7243 55.6335,37.7443 C55.6275,37.7633 55.5995,37.8253 55.5085,37.8253 C55.4955,37.8253 55.4795,37.8243 55.4625,37.8223 C55.4355,37.8193 55.3385,37.8213 55.1495,37.8183 C55.0485,37.8163 54.9085,37.8153 54.7295,37.8153 L54.6027344,37.8154875 C54.4834375,37.8158625 54.3865,37.8168 54.3115,37.8183 C54.1255,37.8213 54.0265,37.8193 54.0015,37.8223 C53.9835,37.8243 53.9675,37.8253 53.9545,37.8253 C53.8635,37.8253 53.8355,37.7633 53.8295,37.7453 C53.8225,37.7253 53.8195,37.7003 53.8195,37.6653 C53.8195,37.6173 53.8325,37.5773 53.8575,37.5453 C53.8955,37.4963 53.9625,37.4863 54.0525,37.4863 C54.1445,37.4863 54.2165,37.4823 54.2665,37.4733 C54.3225,37.4633 54.3455,37.4503 54.3525,37.4453 C54.3625,37.4383 54.3685,37.4313 54.3705,37.4263 C54.3755,37.4093 54.3785,37.3893 54.3785,37.3663 C54.3815,37.3003 54.3845,37.2363 54.3855,37.1683 L54.3855,37.1683 L54.3905,36.9623 C54.3925,36.8953 54.3935,36.8293 54.3935,36.7663 L54.3935,36.7663 L54.3935,35.1683 C54.3935,35.1093 54.3925,35.0553 54.3905,35.0053 L54.3905,35.0053 L54.3855,34.8583 C54.3845,34.8103 54.3835,34.7573 54.3835,34.7003 C54.3835,34.6243 54.3735,34.5803 54.3665,34.5573 C54.3585,34.5343 54.3475,34.5193 54.3285,34.5083 C54.3115,34.4983 54.2775,34.4843 54.2145,34.4773 C54.1525,34.4713 54.0685,34.4683 53.9645,34.4683 C53.8625,34.4683 53.8325,34.3973 53.8265,34.3753 C53.8185,34.3503 53.8145,34.3213 53.8145,34.2893 C53.8145,34.2573 53.8215,34.2283 53.8345,34.2023 C53.8575,34.1563 53.9025,34.1293 53.9545,34.1293 Z M46.737,34.1314 C46.953,34.1294 47.117,34.1254 47.204,34.1344 C47.302,34.1454 47.333,34.2074 47.342,34.2344 C47.407,34.4604 47.459,34.6274 47.498,34.7344 C47.557,34.9014 47.562,34.9324 47.562,34.9554 C47.562,34.9774 47.554,35.0854 47.393,35.0854 C47.362,35.0854 47.316,35.0764 47.269,35.0334 C47.247,35.0134 47.217,34.9814 47.179,34.9384 C47.144,34.8984 47.095,34.8474 47.033,34.7854 C46.972,34.7244 46.888,34.6484 46.782,34.5584 C46.753,34.5314 46.716,34.5114 46.671,34.4944 C46.625,34.4774 46.569,34.4684 46.506,34.4684 C46.474,34.4684 46.427,34.4694 46.366,34.4704 C46.305,34.4724 46.237,34.4744 46.164,34.4784 L46.164,34.4784 L45.949,34.4874 C45.88,34.4914 45.822,34.4944 45.777,34.4974 C45.763,34.4984 45.756,34.4984 45.748,34.5214 C45.739,34.5474 45.724,34.6144 45.724,34.7794 L45.724,34.7794 L45.724,35.8104 L45.957,35.8104 C46.078,35.8104 46.173,35.8004 46.241,35.7804 C46.321,35.7564 46.362,35.7324 46.382,35.7154 C46.418,35.6874 46.424,35.6714 46.425,35.6704 C46.432,35.6474 46.438,35.6294 46.441,35.6174 C46.454,35.5244 46.467,35.4554 46.478,35.4044 C46.49,35.3534 46.5,35.3154 46.507,35.2914 C46.517,35.2544 46.534,35.2134 46.576,35.1934 C46.596,35.1834 46.618,35.1784 46.643,35.1784 C46.814,35.1784 46.832,35.2694 46.832,35.3084 L46.832,35.3084 L46.832,36.0434 C46.832,36.1874 46.836,36.3044 46.844,36.3904 C46.852,36.4824 46.856,36.5624 46.856,36.6264 C46.856,36.6824 46.825,36.7294 46.775,36.7484 C46.751,36.7574 46.724,36.7614 46.697,36.7614 C46.675,36.7614 46.608,36.7614 46.567,36.7124 C46.548,36.6904 46.536,36.6624 46.529,36.6304 C46.51,36.5004 46.489,36.4014 46.468,36.3314 C46.451,36.2744 46.426,36.2334 46.396,36.2084 C46.365,36.1834 46.321,36.1674 46.265,36.1604 C46.193,36.1534 46.099,36.1494 45.986,36.1494 L45.986,36.1494 L45.724,36.1494 L45.724,37.3174 C45.724,37.4174 45.746,37.4464 45.751,37.4514 C45.755,37.4554 45.778,37.4764 45.869,37.4764 L45.869,37.4764 L47.035,37.4764 C47.042,37.4764 47.07,37.4724 47.122,37.4254 C47.174,37.3784 47.226,37.3224 47.276,37.2604 C47.328,37.1964 47.376,37.1304 47.421,37.0654 C47.469,36.9954 47.505,36.9444 47.534,36.9094 L47.534,36.9094 L47.54,36.9014 C47.588,36.8544 47.638,36.8444 47.672,36.8444 C47.834,36.8444 47.846,36.9444 47.846,36.9744 C47.846,36.9924 47.843,37.0044 47.822,37.0674 L47.822,37.0674 L47.772,37.2074 C47.752,37.2634 47.73,37.3244 47.705,37.3884 C47.68,37.4534 47.656,37.5134 47.633,37.5684 C47.609,37.6244 47.588,37.6714 47.569,37.7084 C47.552,37.7434 47.516,37.8154 47.442,37.8154 L47.442,37.8154 L45.2912344,37.8155875 C45.1719375,37.8159625 45.075,37.8169 45,37.8184 C44.813,37.8214 44.715,37.8194 44.69,37.8224 C44.672,37.8244 44.657,37.8254 44.643,37.8254 C44.552,37.8254 44.524,37.7634 44.518,37.7444 C44.511,37.7254 44.508,37.7004 44.508,37.6654 C44.508,37.6224 44.516,37.5874 44.533,37.5574 C44.572,37.4864 44.667,37.4864 44.707,37.4864 C44.799,37.4864 44.871,37.4824 44.921,37.4734 C44.975,37.4634 44.998,37.4514 45.007,37.4454 C45.017,37.4384 45.023,37.4314 45.025,37.4264 C45.03,37.4094 45.033,37.3894 45.033,37.3664 C45.036,37.3004 45.038,37.2364 45.04,37.1684 L45.04,37.1684 L45.045,36.9624 C45.046,36.8944 45.047,36.8294 45.047,36.7664 L45.047,36.7664 L45.047,35.1684 C45.047,35.1094 45.046,35.0544 45.045,35.0054 L45.045,35.0054 L45.04,34.8584 C45.038,34.8104 45.038,34.7574 45.038,34.7004 C45.038,34.6244 45.028,34.5804 45.02,34.5574 C45.01,34.5254 44.995,34.5134 44.984,34.5064 C44.97,34.4964 44.941,34.4834 44.883,34.4774 C44.824,34.4714 44.747,34.4684 44.653,34.4684 C44.551,34.4684 44.521,34.3974 44.515,34.3754 C44.507,34.3504 44.503,34.3214 44.503,34.2894 C44.503,34.2574 44.51,34.2284 44.523,34.2014 C44.546,34.1564 44.591,34.1294 44.643,34.1294 C44.654,34.1294 44.686,34.1304 44.74,34.1314 C44.792,34.1334 44.856,34.1364 44.932,34.1394 C45.006,34.1424 45.086,34.1454 45.172,34.1464 C45.258,34.1484 45.34,34.1494 45.418,34.1494 C45.561,34.1494 45.71,34.1484 45.865,34.1464 C46.02,34.1454 46.171,34.1424 46.32,34.1394 C46.469,34.1364 46.608,34.1334 46.737,34.1314 Z M58.3373,35.1025 C58.3213,35.1425 58.3043,35.1865 58.2863,35.2345 C58.2483,35.3325 58.2093,35.4385 58.1693,35.5535 C58.1283,35.6695 58.0903,35.7785 58.0543,35.8815 C58.0183,35.9835 57.9893,36.0705 57.9673,36.1435 C57.9603,36.1645 57.9553,36.1825 57.9503,36.1965 C57.9693,36.1975 57.9943,36.1975 58.0273,36.1975 L58.7333,36.1975 Z M29.3282,34.4687 C29.2362,34.4687 29.1642,34.4707 29.1142,34.4757 C29.0722,34.4787 29.0512,34.4897 29.0422,34.4977 C29.0382,34.5007 29.0272,34.5127 29.0222,34.5547 C29.0162,34.6067 29.0132,34.6817 29.0132,34.7787 L29.0132,34.7787 L29.0132,35.9207 C29.0132,35.9627 29.0252,35.9807 29.0342,35.9907 L29.0342,35.9907 C29.0352,35.9907 29.0672,36.0117 29.1962,36.0117 C29.3192,36.0117 29.4342,35.9937 29.5382,35.9597 C29.6402,35.9267 29.7282,35.8767 29.8012,35.8127 C29.8742,35.7487 29.9312,35.6677 29.9732,35.5717 C30.0152,35.4747 30.0362,35.3617 30.0362,35.2347 C30.0362,35.1197 30.0182,35.0137 29.9832,34.9207 C29.9492,34.8287 29.9002,34.7477 29.8382,34.6797 C29.7782,34.6137 29.7032,34.5607 29.6192,34.5237 C29.5332,34.4867 29.4352,34.4687 29.3282,34.4687 Z M50.6275,34.4679 C50.5575,34.4679 50.4995,34.4709 50.4565,34.4769 C50.4275,34.4809 50.4055,34.4889 50.3915,34.4999 C50.3785,34.5109 50.3715,34.5329 50.3685,34.5499 C50.3595,34.5879 50.3555,34.6459 50.3555,34.7199 L50.3555,34.7199 L50.3555,35.9229 L50.6615,35.9229 C50.7945,35.9229 50.9065,35.9029 50.9945,35.8629 L50.9945,35.8629 L51.0770926,35.8189 C51.1285,35.7869 51.1725,35.7495667 51.2085,35.7069 C51.2625,35.6429 51.3035,35.5659 51.3295,35.4779 C51.3555,35.3859 51.3695,35.2869 51.3695,35.1859 C51.3695,35.0859 51.3535,34.9899 51.3235,34.9009 C51.2935,34.8149 51.2475,34.7389 51.1875,34.6769 C51.1275,34.6129 51.0505,34.5619 50.9585,34.5249 C50.8665,34.4869 50.7545,34.4679 50.6275,34.4679 Z M36.744,26.398 C37.012,26.398 37.265,26.439 37.496,26.521 C37.73,26.603 37.936,26.728 38.109,26.892 L38.109,26.892 L38.208336,26.995744 C38.3348,27.14112 38.4372,27.3144 38.514,27.512 C38.61,27.758 38.658,28.047 38.658,28.371 C38.658,28.55 38.624,28.747 38.555,28.956 C38.487,29.168 38.374,29.368 38.222,29.552 C38.069,29.736 37.869,29.891 37.628,30.012 C37.385,30.134 37.088,30.196 36.744,30.196 C36.517,30.196 36.308,30.168 36.125,30.111 C35.942,30.055 35.777,29.978 35.635,29.884 C35.492,29.789 35.368,29.678 35.268,29.553 C35.169,29.43 35.086,29.301 35.021,29.17 C34.956,29.038 34.908,28.904 34.879,28.771 C34.85,28.639 34.835,28.513 34.835,28.395 C34.835,28.089 34.889,27.809 34.995,27.563 C35.1,27.318 35.243,27.105 35.42,26.932 C35.596,26.759 35.802,26.625 36.03,26.534 C36.258,26.444 36.498,26.398 36.744,26.398 Z M53.5851,26.4417 C53.6411,26.4417 53.6881,26.4727 53.7071,26.5237 C53.7161,26.5477 53.7201,26.5737 53.7201,26.6017 C53.7201,26.6637 53.7101,26.7017 53.6861,26.7307 C53.6591,26.7637 53.6211,26.7807 53.5801,26.7807 C53.4871,26.7807 53.4091,26.7847 53.3501,26.7917 C53.3031,26.7977 53.2661,26.8107 53.2411,26.8297 C53.2161,26.8487 53.1961,26.8757 53.1821,26.9137 C53.1631,26.9617 53.1461,27.0267 53.1301,27.1087 C53.1281,27.1207 53.1211,27.1617 53.1151,27.3397 C53.1101,27.4737 53.1041,27.6377 53.0981,27.8297 C53.0911,28.0227 53.0851,28.2307 53.0781,28.4547 C53.0711,28.6777 53.0661,28.8937 53.0611,29.1027 C53.0561,29.3117 53.0521,29.4997 53.0491,29.6667 C53.0451,29.8317 53.0441,29.9537 53.0441,30.0317 C53.0441,30.0577 53.0441,30.1357 52.9791,30.1737 C52.9511,30.1897 52.9181,30.1967 52.8741,30.1967 C52.8281,30.1967 52.7961,30.1677 52.7481,30.1197 C52.7141,30.0857 52.6601,30.0267 52.5831,29.9417 C52.5071,29.8587 52.4051,29.7447 52.2761,29.6007 C52.1471,29.4577 51.9831,29.2767 51.7841,29.0577 C51.5851,28.8387 51.3461,28.5777 51.0661,28.2737 C50.8281,28.0147 50.5551,27.7187 50.2471,27.3857 L50.2471,27.3857 L50.2411,27.7787 C50.2371,27.9877 50.2361,28.1977 50.2361,28.4097 C50.2361,28.7747 50.2391,29.0617 50.2451,29.2647 C50.2521,29.4737 50.2551,29.6007 50.2551,29.6547 C50.2551,29.7177 50.2801,29.7417 50.3011,29.7557 C50.3251,29.7717 50.3881,29.7987 50.5421,29.7987 C50.6071,29.7987 50.6571,29.8007 50.6951,29.8037 C50.7411,29.8087 50.7731,29.8157 50.7981,29.8267 C50.8371,29.8437 50.8631,29.8687 50.8751,29.8997 C50.8841,29.9207 50.8871,29.9427 50.8871,29.9687 C50.8871,30.0187 50.8791,30.0537 50.8621,30.0797 C50.8471,30.1017 50.8121,30.1377 50.7431,30.1377 C50.7301,30.1377 50.7141,30.1367 50.6961,30.1347 C50.6671,30.1317 50.5821,30.1337 50.4221,30.1307 C50.3371,30.1287 50.2211,30.1277 50.0711,30.1277 C49.9351,30.1277 49.8271,30.1287 49.7471,30.1307 C49.5961,30.1337 49.5141,30.1317 49.4861,30.1347 C49.4671,30.1367 49.4511,30.1377 49.4391,30.1377 C49.3521,30.1377 49.3101,30.0847 49.3011,30.0357 C49.2961,30.0137 49.2941,29.9847 49.2941,29.9487 C49.2941,29.9207 49.3051,29.8677 49.3771,29.8347 C49.4031,29.8227 49.4331,29.8147 49.4641,29.8097 C49.4901,29.8057 49.5161,29.8037 49.5431,29.8017 C49.6071,29.7967 49.6401,29.7997 49.6961,29.7927 C49.7231,29.7887 49.7501,29.7807 49.7761,29.7697 C49.7961,29.7607 49.8121,29.7487 49.8261,29.7337 C49.8331,29.7247 49.8421,29.7067 49.8481,29.6717 C49.8481,29.6407 49.8521,29.5677 49.8581,29.4537 C49.8641,29.3297 49.8721,29.1627 49.8801,28.9527 C49.8881,28.7427 49.8941,28.4907 49.8991,28.2047 C49.9041,27.9187 49.9071,27.5937 49.9071,27.2387 L49.9071,27.2387 L49.9071,27.1087 C49.9071,27.0747 49.9041,27.0627 49.9041,27.0627 C49.9031,27.0607 49.8931,27.0417 49.8571,26.9997 C49.8271,26.9657 49.7921,26.9307 49.7531,26.8957 C49.7131,26.8617 49.6741,26.8307 49.6371,26.8057 C49.6261,26.7980333 49.6171,26.7927 49.6099889,26.7889963 L49.5891,26.7807 L49.4101,26.7807 C49.3291,26.7807 49.2881,26.7327 49.2771,26.6877 C49.2721,26.6677 49.2691,26.6417 49.2691,26.6067 C49.2691,26.5707 49.2741,26.5187 49.3101,26.4827 C49.3371,26.4557 49.3731,26.4417 49.4191,26.4417 C49.4261,26.4417 49.4511,26.4427 49.4941,26.4447 C49.5361,26.4457 49.5831,26.4487 49.6361,26.4517 C49.6871,26.4547 49.7361,26.4577 49.7831,26.4587 C49.8291,26.4607 49.8631,26.4617 49.8851,26.4617 C49.9041,26.4617 49.9321,26.4607 49.9691,26.4587 C50.0071,26.4577 50.0491,26.4547 50.0941,26.4517 C50.1401,26.4487 50.1851,26.4457 50.2271,26.4447 C50.2691,26.4427 50.3011,26.4417 50.3211,26.4417 C50.3671,26.4417 50.4001,26.4717 50.4281,26.4997 C50.7191,26.8267 51.0651,27.2207 51.4591,27.6757 C51.8161,28.0857 52.2391,28.5447 52.7201,29.0417 C52.7231,28.9847 52.7251,28.9227 52.7271,28.8577 C52.7321,28.7007 52.7371,28.5387 52.7421,28.3727 C52.7471,28.2067 52.7511,28.0437 52.7541,27.8837 C52.7571,27.7237 52.7591,27.5847 52.7591,27.4637 C52.7591,27.2857 52.7471,27.1467 52.7251,27.0497 C52.7041,26.9627 52.6751,26.8997 52.6391,26.8617 C52.6051,26.8267 52.5611,26.8047 52.5051,26.7967 C52.4331,26.7857 52.3451,26.7807 52.2421,26.7807 C52.1611,26.7807 52.1241,26.7397 52.1091,26.7157 C52.0921,26.6877 52.0831,26.6537 52.0831,26.6157 C52.0831,26.4877 52.1631,26.4417 52.2321,26.4417 C52.2521,26.4417 52.2951,26.4427 52.3601,26.4447 C52.4241,26.4457 52.4941,26.4487 52.5701,26.4517 C52.6441,26.4547 52.7161,26.4577 52.7861,26.4587 C52.8551,26.4607 52.9071,26.4617 52.9431,26.4617 L52.9758407,26.4613667 C53.0022111,26.4609222 53.0377667,26.4600333 53.0831,26.4587 C53.1511,26.4577 53.2191,26.4547 53.2891,26.4517 C53.3601,26.4487 53.4251,26.4457 53.4841,26.4447 C53.5451,26.4427 53.5781,26.4417 53.5851,26.4417 Z M27.9373,26.3975 C28.0073,26.3975 28.0773,26.4475 28.0773,26.5575 C28.0773,26.6495 28.0813,26.7405 28.0893,26.8305 C28.0973,26.9225 28.1053,27.0055 28.1133,27.0785 C28.1213,27.1495 28.1293,27.2085 28.1373,27.2535 C28.1483,27.3205 28.1513,27.3415 28.1513,27.3565 C28.1513,27.4415 28.0913,27.5015 28.0063,27.5015 C27.9733,27.5015 27.9503,27.4995 27.9363,27.4975 C27.9143,27.4945 27.8613,27.4795 27.8333,27.4115 C27.7983,27.3175 27.7583,27.2265 27.7163,27.1375 C27.6763,27.0555 27.6273,26.9805 27.5713,26.9175 C27.5183,26.8565 27.4533,26.8075 27.3803,26.7705 C27.3093,26.7345 27.2213,26.7165 27.1193,26.7165 C27.0463,26.7165 26.9743,26.7295 26.9073,26.7545 C26.8413,26.7795 26.7823,26.8155 26.7333,26.8605 C26.6833,26.9055 26.6433,26.9615 26.6133,27.0265 C26.5833,27.0905 26.5683,27.1635 26.5683,27.2435 C26.5683,27.3135 26.5773,27.3735 26.5963,27.4225 C26.6153,27.4735 26.6403,27.5185 26.6703,27.5565 C26.7003,27.5955 26.7363,27.6305 26.7743,27.6595 C26.8183,27.6915 26.8623,27.7225 26.9063,27.7505 C27.0423,27.8365 27.1883,27.9155 27.3393,27.9875 C27.4973,28.0625 27.6453,28.1465 27.7783,28.2375 C27.9163,28.3315 28.0313,28.4445 28.1213,28.5725 C28.2153,28.7085 28.2633,28.8785 28.2633,29.0815 C28.2633,29.2745 28.2303,29.4435 28.1643,29.5855 C28.0973,29.7275 28.0023,29.8465 27.8823,29.9365 C27.7653,30.0255 27.6273,30.0915 27.4723,30.1345 C27.3213,30.1755 27.1563,30.1965 26.9813,30.1965 C26.8033,30.1965 26.6373,30.1885 26.4873,30.1735 C26.3403,30.1595 26.2113,30.1435 26.1043,30.1265 C26.0783,30.1215 26.0443,30.1125 26.0193,30.0875 C25.9943,30.0615 25.9853,30.0275 25.9803,29.9845 C25.9633,29.7205 25.9473,29.5345 25.9333,29.4265 C25.9103,29.2545 25.9103,29.2385 25.9103,29.2285 C25.9103,29.1945 25.9243,29.0835 26.1043,29.0835 C26.1733,29.0835 26.2073,29.1155 26.2233,29.1415 C26.2343,29.1595 26.2423,29.1815 26.2513,29.2195 C26.2783,29.3075 26.3133,29.3955 26.3563,29.4775 C26.3973,29.5565 26.4483,29.6265 26.5093,29.6865 C26.5693,29.7445 26.6413,29.7915 26.7243,29.8255 C26.8073,29.8595 26.9063,29.8775 27.0213,29.8775 C27.2193,29.8775 27.3633,29.8255 27.4593,29.7175 C27.5583,29.6075 27.6063,29.4695 27.6063,29.2965 C27.6063,29.2175 27.5943,29.1485 27.5713,29.0895 C27.5483,29.0315 27.5083,28.9735 27.4503,28.9165 C27.3893,28.8545 27.3043,28.7915 27.1973,28.7275 C27.0863,28.6605 26.9443,28.5805 26.7743,28.4895 C26.6733,28.4365 26.5743,28.3815 26.4833,28.3245 C26.3873,28.2655 26.3013,28.1985 26.2273,28.1245 C26.1503,28.0475 26.0893,27.9565 26.0453,27.8545 C26.0013,27.7515 25.9793,27.6285 25.9793,27.4885 C25.9793,27.3505 26.0023,27.2145 26.0483,27.0845 C26.0953,26.9505 26.1683,26.8315 26.2663,26.7305 C26.3623,26.6305 26.4853,26.5485 26.6313,26.4885 C26.7763,26.4285 26.9493,26.3975 27.1433,26.3975 C27.3273,26.3975 27.4723,26.4135 27.5883,26.4455 C27.6983,26.4755 27.7603,26.4845 27.7953,26.4855 C27.7963,26.4845 27.7973,26.4835 27.7983,26.4815 C27.8383,26.4255 27.8853,26.3975 27.9373,26.3975 Z M62.2311,26.444 C62.4471,26.441 62.6101,26.438 62.6981,26.447 C62.7951,26.458 62.8271,26.52 62.8351,26.546 C62.9011,26.772 62.9531,26.939 62.9921,27.047 L63.0173269,27.1197593 C63.0526278,27.2241111 63.0561,27.2488333 63.0561,27.268 C63.0561,27.29 63.0481,27.398 62.8871,27.398 C62.8561,27.398 62.8101,27.389 62.7631,27.346 C62.7411,27.326 62.7111,27.294 62.6721,27.25 C62.6371,27.211 62.5891,27.159 62.5271,27.098 C62.4661,27.037 62.3821,26.961 62.2761,26.87 C62.2471,26.844 62.2101,26.823 62.1641,26.806 C62.1181,26.789 62.0631,26.781 62.0001,26.781 C61.9671,26.781 61.9211,26.782 61.8601,26.783 C61.7981,26.785 61.7311,26.787 61.6581,26.79 L61.6581,26.79 L61.4431,26.8 C61.3741,26.803 61.3161,26.807 61.2711,26.81 C61.2571,26.811 61.2501,26.811 61.2421,26.834 C61.2331,26.859 61.2181,26.927 61.2181,27.092 L61.2181,27.092 L61.2181,28.123 L61.4511,28.123 C61.5721,28.123 61.6671,28.112 61.7341,28.092 C61.8151,28.068 61.8561,28.044 61.8761,28.028 C61.9121,28 61.9181,27.984 61.9181,27.982 C61.9261,27.959 61.9321,27.942 61.9351,27.93 C61.9481,27.838 61.9601,27.768 61.9721,27.717 C61.9841,27.665 61.9941,27.628 62.0001,27.604 C62.0111,27.567 62.0281,27.526 62.0701,27.505 C62.0901,27.495 62.1121,27.491 62.1371,27.491 C62.3071,27.491 62.3261,27.581 62.3261,27.621 L62.3261,27.621 L62.3261,28.356 C62.3261,28.5 62.3301,28.616 62.3381,28.702 C62.3461,28.797 62.3501,28.874 62.3501,28.939 C62.3501,28.995 62.3191,29.042 62.2691,29.06 C62.2441,29.07 62.2181,29.074 62.1911,29.074 C62.1691,29.074 62.1021,29.074 62.0611,29.025 C62.0421,29.003 62.0291,28.975 62.0231,28.943 C62.0031,28.813 61.9831,28.714 61.9621,28.644 C61.9451,28.587 61.9201,28.546 61.8901,28.521 C61.8591,28.495 61.8151,28.479 61.7591,28.473 C61.6871,28.465 61.5931,28.462 61.4801,28.462 L61.4801,28.462 L61.2181,28.462 L61.2181,29.63 C61.2181,29.73 61.2401,29.759 61.2451,29.764 C61.2481,29.768 61.2721,29.789 61.3621,29.789 L61.3621,29.789 L62.5291,29.789 C62.5361,29.789 62.5641,29.785 62.6161,29.738 C62.6681,29.691 62.7201,29.635 62.7701,29.572 C62.8221,29.508 62.8711,29.443 62.9151,29.377 C62.9631,29.308 63.0001,29.257 63.0271,29.222 L63.0271,29.222 L63.0341,29.214 C63.0821,29.167 63.1321,29.157 63.1661,29.157 C63.3281,29.157 63.3401,29.256 63.3401,29.287 C63.3401,29.305 63.3371,29.317 63.3151,29.38 L63.3151,29.38 L63.2661,29.52 C63.2461,29.576 63.2241,29.637 63.1991,29.701 C63.1741,29.766 63.1501,29.826 63.1271,29.881 C63.1031,29.937 63.0821,29.984 63.0631,30.021 C63.0461,30.056 63.0101,30.128 62.9361,30.128 L62.9361,30.128 L60.6731,30.128625 C60.60335,30.129 60.5436,30.1295 60.4941,30.13 C60.3071,30.133 60.2091,30.131 60.1841,30.134 C60.1661,30.137 60.1501,30.138 60.1371,30.138 C60.0461,30.138 60.0181,30.076 60.0121,30.057 C60.0051,30.037 60.0021,30.013 60.0021,29.978 C60.0021,29.935 60.0101,29.899 60.0271,29.87 C60.0661,29.799 60.1601,29.799 60.2011,29.799 C60.2931,29.799 60.3651,29.794 60.4151,29.786 C60.4711,29.776 60.4941,29.763 60.5011,29.758 C60.5111,29.751 60.5171,29.744 60.5191,29.739 C60.5241,29.722 60.5261,29.702 60.5261,29.679 L60.5261,29.679 L60.5341,29.481 L60.5391,29.275 C60.5401,29.207 60.5411,29.142 60.5411,29.079 L60.5411,29.079 L60.5411,27.481 C60.5411,27.422 60.5401,27.367 60.5391,27.318 L60.5391,27.318 L60.5341,27.171 C60.5321,27.122 60.5311,27.07 60.5311,27.013 C60.5311,26.937 60.5221,26.893 60.5141,26.869 C60.5041,26.838 60.4891,26.825 60.4791,26.818 C60.4641,26.809 60.4351,26.796 60.3771,26.79 C60.3181,26.784 60.2411,26.781 60.1471,26.781 C60.0441,26.781 60.0151,26.709 60.0091,26.687 C60.0011,26.662 59.9971,26.634 59.9971,26.601 C59.9971,26.57 60.0041,26.54 60.0171,26.514 C60.0401,26.469 60.0851,26.442 60.1371,26.442 C60.1471,26.442 60.1791,26.443 60.2331,26.444 C60.2861,26.446 60.3501,26.448 60.4261,26.452 C60.5001,26.455 60.5801,26.457 60.6661,26.459 C60.7521,26.461 60.8341,26.461 60.9121,26.461 C61.0551,26.461 61.2041,26.461 61.3591,26.459 C61.5141,26.457 61.6651,26.455 61.8141,26.452 C61.9631,26.448 62.1021,26.446 62.2311,26.444 Z M19.1189,26.4513 C19.3839,26.4383 19.6819,26.4273 19.9959,26.4853 C20.1559,26.5143 20.3029,26.5653 20.4339,26.6373 C20.5689,26.7113 20.6819,26.8143 20.7689,26.9423 C20.8579,27.0743 20.9029,27.2393 20.9029,27.4343 C20.9029,27.5623 20.8859,27.6773 20.8509,27.7773 C20.8159,27.8793 20.7609,27.9713 20.6869,28.0533 C20.6149,28.1313 20.5249,28.2033 20.4169,28.2673 C20.3219,28.3233 20.2109,28.3763 20.0879,28.4263 C20.0899,28.4303 20.0919,28.4353 20.0949,28.4393 C20.1249,28.4953 20.1689,28.5693 20.2269,28.6603 C20.2849,28.7523 20.3569,28.8583 20.4409,28.9763 C20.5259,29.0943 20.6259,29.2223 20.7389,29.3583 C20.8269,29.4653 20.8979,29.5503 20.9529,29.6133 C21.0039,29.6723 21.0499,29.7163 21.0899,29.7463 C21.1249,29.7733 21.1599,29.7903 21.1939,29.7993 C21.2339,29.8083 21.2889,29.8133 21.3559,29.8133 C21.4139,29.8133 21.4619,29.8473 21.4769,29.9003 C21.4829,29.9213 21.4859,29.9433 21.4859,29.9683 C21.4859,30.0853 21.4079,30.1373 21.3309,30.1373 C21.3189,30.1373 21.3059,30.1363 21.2909,30.1333 C21.2769,30.1323 21.2189,30.1333 21.1349,30.1303 C21.0849,30.1283 21.0159,30.1273 20.9289,30.1273 L20.8609741,30.1276333 C20.8191222,30.1280778 20.7842333,30.1289667 20.7569,30.1303 C20.6869,30.1323 20.6379,30.1313 20.6199,30.1333 C20.5679,30.1443 20.5299,30.1373 20.5029,30.1283 C20.4739,30.1183 20.4489,30.0983 20.4199,30.0643 C20.3149,29.9293 20.2159,29.7913 20.1239,29.6513 C20.0319,29.5113 19.9479,29.3803 19.8709,29.2573 C19.7939,29.1353 19.7249,29.0283 19.6639,28.9363 C19.6049,28.8473 19.5549,28.7813 19.5159,28.7393 C19.4749,28.6983 19.4339,28.6633 19.3969,28.6393 C19.3629,28.6173 19.3299,28.6013 19.2999,28.5923 C19.2689,28.5833 19.2359,28.5783 19.2029,28.5763 C19.1919,28.5763 19.1799,28.5753 19.1679,28.5753 L19.1679,28.5753 L19.1679,29.0783 C19.1679,29.1413 19.1689,29.2073 19.1699,29.2753 L19.1699,29.2753 L19.1749,29.4803 C19.1769,29.5483 19.1789,29.6123 19.1829,29.6743 C19.1829,29.7023 19.1849,29.7223 19.1899,29.7383 C19.1919,29.7443 19.1989,29.7503 19.2079,29.7573 C19.2159,29.7623 19.2379,29.7753 19.2949,29.7853 C19.3439,29.7943 19.4159,29.7983 19.5079,29.7983 C19.5979,29.7983 19.6659,29.8083 19.7039,29.8573 C19.7289,29.8893 19.7409,29.9303 19.7409,29.9783 C19.7409,30.0123 19.7379,30.0363 19.7319,30.0573 C19.7249,30.0763 19.6969,30.1373 19.6059,30.1373 C19.5929,30.1373 19.5779,30.1363 19.5609,30.1343 C19.5339,30.1313 19.4359,30.1333 19.2469,30.1303 C19.1459,30.1283 19.0059,30.1273 18.8269,30.1273 L18.7115875,30.1274875 C18.6032125,30.1278625 18.51565,30.1288 18.4489,30.1303 C18.2809,30.1333 18.1969,30.1313 18.1729,30.1343 C18.1549,30.1363 18.1389,30.1373 18.1259,30.1373 C18.0349,30.1373 18.0069,30.0763 18.0009,30.0573 C17.9939,30.0373 17.9909,30.0123 17.9909,29.9783 C17.9909,29.9303 18.0039,29.8893 18.0289,29.8573 C18.0669,29.8093 18.1339,29.7983 18.2239,29.7983 C18.2959,29.7983 18.3519,29.7943 18.3899,29.7863 C18.4309,29.7773 18.4459,29.7673 18.4509,29.7633 C18.4629,29.7523 18.4669,29.7443 18.4679,29.7383 C18.4739,29.7223 18.4759,29.7013 18.4759,29.6793 C18.4799,29.6133 18.4819,29.5483 18.4839,29.4803 L18.4839,29.4803 L18.4889,29.2753 C18.4899,29.2073 18.4909,29.1413 18.4909,29.0783 L18.490275,27.39555 L18.490275,27.39555 L18.4889,27.3173 L18.4839,27.1703 C18.4819,27.1223 18.4809,27.0703 18.4809,27.0133 C18.4809,26.9503 18.4759,26.9013 18.4659,26.8663 C18.4569,26.8353 18.4429,26.8233 18.4339,26.8173 C18.4209,26.8083 18.3939,26.7953 18.3429,26.7893 C18.2889,26.7833 18.2199,26.7803 18.1359,26.7803 C18.0329,26.7803 18.0039,26.7093 17.9979,26.6873 C17.9899,26.6623 17.9859,26.6343 17.9859,26.6013 C17.9859,26.5703 17.9929,26.5403 18.0059,26.5143 C18.0289,26.4693 18.0739,26.4413 18.1259,26.4413 C18.1359,26.4413 18.1649,26.4423 18.2129,26.4443 C18.2589,26.4463 18.3149,26.4483 18.3809,26.4513 C18.4459,26.4553 18.5169,26.4573 18.5939,26.4593 C18.6719,26.4603 18.7489,26.4613 18.8269,26.4613 C18.8909,26.4613 18.9889,26.4583 19.1189,26.4513 Z M41.1693,26.4513 C41.4343,26.4383 41.7323,26.4273 42.0463,26.4853 C42.2063,26.5143 42.3533,26.5653 42.4843,26.6373 C42.6193,26.7113 42.7323,26.8143 42.8193,26.9423 C42.9083,27.0743 42.9533,27.2393 42.9533,27.4343 C42.9533,27.5623 42.9363,27.6773 42.9013,27.7773 C42.8663,27.8793 42.8113,27.9713 42.7373,28.0533 C42.6663,28.1313 42.5753,28.2033 42.4673,28.2673 C42.3723,28.3233 42.2613,28.3763 42.1383,28.4263 C42.1403,28.4303 42.1423,28.4353 42.1453,28.4393 C42.1753,28.4953 42.2193,28.5693 42.2773,28.6603 C42.3353,28.7523 42.4073,28.8583 42.4913,28.9763 C42.5763,29.0943 42.6763,29.2223 42.7893,29.3583 C42.8773,29.4653 42.9483,29.5503 43.0033,29.6133 C43.0543,29.6723 43.1003,29.7163 43.1403,29.7463 C43.1753,29.7733 43.2103,29.7903 43.2443,29.7993 C43.2843,29.8083 43.3393,29.8133 43.4063,29.8133 C43.4643,29.8133 43.5123,29.8473 43.5273,29.9003 C43.5333,29.9213 43.5363,29.9433 43.5363,29.9683 C43.5363,30.0853 43.4583,30.1373 43.3813,30.1373 C43.3693,30.1373 43.3563,30.1363 43.3413,30.1333 C43.3273,30.1323 43.2693,30.1333 43.1853,30.1303 C43.1353,30.1283 43.0663,30.1273 42.9793,30.1273 L42.9115963,30.1276333 C42.8699667,30.1280778 42.8353,30.1289667 42.8073,30.1303 C42.7373,30.1323 42.6883,30.1313 42.6703,30.1333 C42.6183,30.1443 42.5803,30.1373 42.5533,30.1283 C42.5243,30.1183 42.4993,30.0983 42.4703,30.0643 C42.3653,29.9293 42.2663,29.7913 42.1743,29.6513 C42.0823,29.5113 41.9983,29.3803 41.9213,29.2573 C41.8443,29.1353 41.7753,29.0283 41.7143,28.9363 C41.6553,28.8473 41.6053,28.7813 41.5663,28.7393 C41.5253,28.6983 41.4843,28.6633 41.4473,28.6393 C41.4133,28.6173 41.3803,28.6013 41.3503,28.5923 C41.3193,28.5833 41.2863,28.5783 41.2533,28.5763 C41.2423,28.5763 41.2303,28.5753 41.2183,28.5753 L41.2183,28.5753 L41.2183,29.0783 C41.2183,29.1413 41.2193,29.2073 41.2213,29.2753 L41.2213,29.2753 L41.2253,29.4803 C41.2273,29.5483 41.2293,29.6123 41.2333,29.6743 C41.2333,29.7023 41.2353,29.7223 41.2413,29.7383 C41.2423,29.7443 41.2493,29.7503 41.2583,29.7573 C41.2663,29.7623 41.2883,29.7753 41.3453,29.7853 C41.3943,29.7943 41.4663,29.7983 41.5583,29.7983 C41.6483,29.7983 41.7163,29.8083 41.7543,29.8573 C41.7793,29.8893 41.7913,29.9303 41.7913,29.9783 C41.7913,30.0123 41.7893,30.0363 41.7823,30.0573 C41.7753,30.0763 41.7473,30.1373 41.6563,30.1373 C41.6433,30.1373 41.6283,30.1363 41.6113,30.1343 C41.5843,30.1313 41.4863,30.1333 41.2973,30.1303 C41.1963,30.1283 41.0563,30.1273 40.8773,30.1273 L40.7621281,30.1274875 C40.6539875,30.1278625 40.5668,30.1288 40.4993,30.1303 C40.3313,30.1333 40.2473,30.1313 40.2233,30.1343 C40.2053,30.1363 40.1893,30.1373 40.1763,30.1373 C40.0853,30.1373 40.0573,30.0763 40.0513,30.0573 C40.0443,30.0373 40.0413,30.0123 40.0413,29.9783 C40.0413,29.9303 40.0543,29.8893 40.0793,29.8573 C40.1173,29.8093 40.1843,29.7983 40.2743,29.7983 C40.3463,29.7983 40.4023,29.7943 40.4403,29.7863 C40.4813,29.7773 40.4963,29.7673 40.5013,29.7633 C40.5133,29.7523 40.5173,29.7443 40.5183,29.7383 C40.5243,29.7223 40.5263,29.7013 40.5263,29.6793 C40.5303,29.6133 40.5323,29.5483 40.5343,29.4803 L40.5343,29.4803 L40.5393,29.2753 C40.5403,29.2073 40.5413,29.1413 40.5413,29.0783 L40.5413,29.0783 L40.5413,27.4813 C40.5413,27.4213 40.5403,27.3673 40.5393,27.3173 L40.5393,27.3173 L40.5343,27.1703 C40.5323,27.1223 40.5313,27.0703 40.5313,27.0133 C40.5313,26.9503 40.5263,26.9013 40.5163,26.8663 C40.5073,26.8353 40.4933,26.8233 40.4843,26.8173 C40.4713,26.8083 40.4443,26.7953 40.3933,26.7893 C40.3403,26.7833 40.2703,26.7803 40.1863,26.7803 C40.0833,26.7803 40.0543,26.7093 40.0483,26.6873 C40.0403,26.6623 40.0363,26.6343 40.0363,26.6013 C40.0363,26.5703 40.0433,26.5403 40.0563,26.5143 C40.0793,26.4693 40.1243,26.4413 40.1763,26.4413 C40.1863,26.4413 40.2153,26.4423 40.2633,26.4443 C40.3093,26.4463 40.3653,26.4483 40.4313,26.4513 C40.4963,26.4553 40.5673,26.4573 40.6443,26.4593 C40.7223,26.4603 40.7993,26.4613 40.8773,26.4613 C40.9413,26.4613 41.0393,26.4583 41.1693,26.4513 Z M46.4155,26.3928 C46.4545,26.3928 46.4835,26.3988 46.5075,26.4098 C46.5475,26.4298 46.5695,26.4708 46.5865,26.5088 C46.5867857,26.5095143 46.5871939,26.5104327 46.5878878,26.5120303 L46.5967857,26.5335697 C46.6067449,26.5584327 46.6265,26.6093714 46.6665,26.7168 C46.7125,26.8398 46.7695,26.9958 46.8385,27.1838 C46.9075,27.3708 46.9845,27.5788 47.0715,27.8078 C47.1575,28.0358 47.2445,28.2628 47.3305,28.4878 C47.4175,28.7138 47.4995,28.9268 47.5775,29.1268 C47.6555,29.3258 47.7245,29.4918 47.7815,29.6198 C47.8125,29.6918 47.8485,29.7408 47.8865,29.7628 C47.9285,29.7868 47.9895,29.7988 48.0665,29.7988 C48.0965,29.7988 48.1325,29.8038 48.1775,29.8128 L48.1775,29.8128 C48.2965,29.8398 48.3095,29.9168 48.3095,29.9488 C48.3095,29.9738 48.3055,30.0018 48.2965,30.0338 C48.2775,30.0978 48.2255,30.1378 48.1595,30.1378 C48.1445,30.1378 48.1265,30.1368 48.1065,30.1348 C48.0745,30.1318 47.9865,30.1328 47.8245,30.1298 C47.7405,30.1288 47.6245,30.1278 47.4785,30.1278 L47.3609219,30.1279719 C47.25025,30.1283 47.16025,30.12905 47.0905,30.1298 C46.9145,30.1338 46.8235,30.1318 46.7955,30.1348 C46.7765,30.1368 46.7615,30.1378 46.7485,30.1378 C46.7055,30.1378 46.6495,30.1108 46.6345,30.0358 C46.6305,30.0138 46.6285,29.9868 46.6285,29.9538 C46.6285,29.9248 46.6385,29.8298 46.7765,29.8098 C46.8245,29.8028 46.8765,29.7988 46.9295,29.7988 C47.0345,29.7988 47.0775,29.7898 47.0935,29.7848 C47.0915,29.7708 47.0845,29.7338 47.0525,29.6398 C47.0215,29.5508 46.9855,29.4528 46.9435,29.3468 C46.9015,29.2388 46.8595,29.1348 46.8185,29.0338 C46.7915,28.9658 46.7695,28.9098 46.7515,28.8638 L46.7515,28.8638 L45.8075,28.8638 C45.7545,28.8638 45.7265,28.8658 45.7125,28.8678 C45.7095,28.8748 45.7035,28.8858 45.6965,28.9038 C45.6445,29.0368 45.6015,29.1528 45.5675,29.2498 C45.5335,29.3468 45.5055,29.4288 45.4845,29.4948 C45.4645,29.5588 45.4505,29.6098 45.4435,29.6468 C45.4345,29.6928 45.4335,29.7118 45.4335,29.7188 C45.4335,29.7298 45.4345,29.7428 45.4365,29.7558 C45.4375,29.7588 45.4385,29.7628 45.4435,29.7678 C45.4435,29.7678 45.4505,29.7758 45.4765,29.7858 C45.4895,29.7908 45.5225,29.7988 45.5925,29.7988 C45.6655,29.7988 45.7255,29.8008 45.7705,29.8038 C45.8195,29.8078 45.8545,29.8128 45.8805,29.8188 C45.8985,29.8228 45.9515,29.8348 45.9805,29.8818 C45.9945,29.9058 46.0015,29.9328 46.0015,29.9638 C46.0015,30.0108 45.9945,30.0448 45.9795,30.0718 C45.9615,30.1018 45.9245,30.1378 45.8465,30.1378 C45.8355,30.1378 45.8185,30.1368 45.7965,30.1348 C45.7615,30.1318 45.6695,30.1338 45.5065,30.1298 C45.4225,30.1288 45.3065,30.1278 45.1605,30.1278 C45.0875,30.1278 45.0275,30.1288 44.9835,30.1298 C44.8985,30.1328 44.8435,30.1318 44.8205,30.1348 C44.8015,30.1368 44.7865,30.1378 44.7735,30.1378 C44.7435,30.1378 44.6435,30.1248 44.6435,29.9588 C44.6435,29.9308 44.6535,29.8608 44.7445,29.8238 C44.7845,29.8068 44.8405,29.7988 44.9205,29.7988 C44.9435,29.7988 44.9685,29.7878 44.9945,29.7668 C45.0115,29.7528 45.0445,29.7148 45.0795,29.6138 C45.2295,29.1788 45.4005,28.6948 45.5905,28.1758 C45.7785,27.6598 45.9935,27.0968 46.2315,26.5008 C46.2545,26.4298 46.3015,26.4068 46.3285,26.4008 C46.3495,26.3948 46.3775,26.3928 46.4155,26.3928 Z M33.2598,26.3388 C33.3168,26.3388 33.3658,26.3748 33.3848,26.4338 C33.3918,26.4538 33.4078,26.5068 33.4348,26.5928 C33.4748,26.7348 33.5078,26.8468 33.5348,26.9288 C33.5618,27.0128 33.5838,27.0768 33.6018,27.1238 L33.6018,27.1238 L33.617837,27.1668 C33.6272444,27.1921333 33.6341333,27.2108 33.6388,27.2228 C33.6498,27.2528 33.6548,27.2688 33.6548,27.2878 C33.6548,27.3298 33.6308,27.3658 33.5838,27.3938 C33.4958,27.4468 33.3918,27.4228 33.3388,27.3478 L33.3388,27.3478 L33.3328,27.3388 C33.2228,27.1408 33.1088,26.9988 32.9938,26.9178 C32.8828,26.8398 32.7468,26.7998 32.5878,26.7998 L32.5878,26.7998 L31.9908,26.7998 C31.9838,26.8098 31.9688,26.8508 31.9688,27.0128 L31.9688,27.0128 L31.9688,29.0788 C31.9688,29.1418 31.9698,29.2068 31.9708,29.2748 L31.9708,29.2748 L31.9758,29.4808 C31.9778,29.5488 31.9798,29.6128 31.9838,29.6738 C31.9838,29.7018 31.9858,29.7218 31.9908,29.7388 C31.9928,29.7438 31.9988,29.7508 32.0088,29.7578 C32.0168,29.7628 32.0388,29.7758 32.0948,29.7858 C32.1448,29.7948 32.2168,29.7988 32.3088,29.7988 C32.3988,29.7988 32.4668,29.8088 32.5048,29.8578 C32.5298,29.8898 32.5418,29.9298 32.5418,29.9778 C32.5418,30.0118 32.5388,30.0368 32.5328,30.0568 C32.5258,30.0768 32.4978,30.1378 32.4068,30.1378 C32.3938,30.1378 32.3788,30.1368 32.3608,30.1348 C32.3338,30.1318 32.2368,30.1328 32.0478,30.1308 C31.9468,30.1288 31.8068,30.1278 31.6278,30.1278 L31.50105,30.1279875 C31.3818,30.1283625 31.28505,30.1293 31.2108,30.1308 C31.0238,30.1328 30.9258,30.1318 30.8998,30.1348 C30.8818,30.1368 30.8668,30.1378 30.8538,30.1378 C30.7618,30.1378 30.7338,30.0758 30.7278,30.0568 C30.7208,30.0368 30.7188,30.0128 30.7188,29.9778 C30.7188,29.9298 30.7308,29.8898 30.7558,29.8578 C30.7938,29.8088 30.8618,29.7988 30.9518,29.7988 C31.0438,29.7988 31.1158,29.7948 31.1648,29.7858 C31.2208,29.7758 31.2438,29.7628 31.2508,29.7578 C31.2608,29.7508 31.2678,29.7438 31.2688,29.7388 C31.2748,29.7218 31.2768,29.7018 31.2768,29.6788 C31.2798,29.6128 31.2828,29.5488 31.2848,29.4808 L31.2848,29.4808 L31.2888,29.2748 C31.2908,29.2068 31.2918,29.1418 31.2918,29.0788 L31.2918,27.0128 C31.2918,26.9408 31.2888,26.8848 31.2828,26.8498 C31.2778,26.8148 31.2698,26.8048 31.2698,26.8048 C31.2418,26.8018 31.2098,26.7998 31.1718,26.7998 L31.1718,26.7998 L30.6378,26.7998 C30.5598,26.7998 30.4888,26.8148 30.4248,26.8438 C30.3568,26.8738 30.2928,26.9138 30.2338,26.9638 C30.1748,27.0148 30.1188,27.0728 30.0698,27.1378 C30.0168,27.2068 29.9658,27.2768 29.9178,27.3468 C29.8898,27.3948 29.8488,27.4108 29.8198,27.4148 C29.8068,27.4168 29.7848,27.4178 29.7558,27.4178 C29.5958,27.4178 29.5908,27.3008 29.5908,27.2878 C29.5908,27.2668 29.5968,27.2488 29.6058,27.2278 C29.6074667,27.2241333 29.6096889,27.2188 29.6125037,27.2118741 L29.6368,27.1518 C29.6528,27.1118 29.6768,27.0488 29.7068,26.9638 C29.7378,26.8778 29.7788,26.7568 29.8308,26.6008 C29.8318,26.5958 29.8358,26.5788 29.8408,26.5568 C29.8458,26.5338 29.8508,26.5108 29.8558,26.4888 C29.8628,26.4588 29.8728,26.4328 29.8848,26.4098 C29.9208,26.3458 29.9738,26.3388 29.9958,26.3388 C30.0418,26.3388 30.0838,26.3518 30.1178,26.3768 C30.1358,26.3898 30.1548,26.4028 30.1748,26.4168 C30.1908,26.4278 30.2118,26.4388 30.2358,26.4488 C30.2498,26.4548 30.2748,26.4618 30.3188,26.4618 L30.3188,26.4618 L32.9558,26.4618 C32.9958,26.4618 33.0178,26.4548 33.0298,26.4498 C33.0538,26.4388 33.0758,26.4278 33.0948,26.4158 C33.1148,26.4028 33.1318,26.3908 33.1458,26.3798 C33.1788,26.3528 33.2188,26.3388 33.2598,26.3388 Z M22.7668,26.4415 C22.7768,26.4415 22.8088,26.4425 22.8628,26.4445 C22.9158,26.4455 22.9798,26.4485 23.0558,26.4515 C23.1298,26.4545 23.2098,26.4575 23.2958,26.4585 C23.4678,26.4625 23.6148,26.4625 23.7868,26.4585 C23.8728,26.4575 23.9538,26.4545 24.0298,26.4515 C24.1068,26.4485 24.1718,26.4455 24.2248,26.4445 C24.2788,26.4425 24.3108,26.4415 24.3208,26.4415 C24.3728,26.4415 24.4178,26.4685 24.4408,26.5135 C24.4538,26.5415 24.4608,26.5705 24.4608,26.6015 C24.4608,26.6345 24.4568,26.6625 24.4488,26.6875 C24.4428,26.7095 24.4138,26.7805 24.3108,26.7805 C24.2068,26.7805 24.1228,26.7835 24.0608,26.7895 C23.9978,26.7965 23.9638,26.8105 23.9468,26.8205 C23.9288,26.8315 23.9168,26.8465 23.9098,26.8695 C23.9018,26.8925 23.8918,26.9365 23.8918,27.0125 C23.8918,27.0695 23.8918,27.1225 23.8898,27.1705 L23.8898,27.1705 L23.8848,27.3175 C23.8828,27.3675 23.8828,27.4215 23.8828,27.4805 L23.8828,27.4805 L23.8828,29.0785 C23.8828,29.1415 23.8828,29.2065 23.8848,29.2745 L23.8848,29.2745 L23.8898,29.4805 C23.8908,29.5485 23.8938,29.6125 23.8968,29.6735 C23.8968,29.7015 23.8998,29.7215 23.9048,29.7385 C23.9068,29.7435 23.9128,29.7505 23.9228,29.7575 C23.9298,29.7625 23.9528,29.7755 24.0088,29.7855 C24.0588,29.7945 24.1308,29.7985 24.2228,29.7985 C24.3128,29.7985 24.3798,29.8085 24.4178,29.8575 C24.4428,29.8895 24.4558,29.9305 24.4558,29.9775 C24.4558,30.0125 24.4528,30.0365 24.4458,30.0565 C24.4398,30.0765 24.4118,30.1375 24.3208,30.1375 C24.3078,30.1375 24.2918,30.1365 24.2748,30.1345 C24.2478,30.1315 24.1508,30.1335 23.9618,30.1305 C23.8608,30.1285 23.7208,30.1275 23.5418,30.1275 L23.4148938,30.1276875 C23.2953625,30.1280625 23.19805,30.129 23.1238,30.1305 C22.9368,30.1335 22.8388,30.1315 22.8138,30.1345 C22.7958,30.1365 22.7798,30.1375 22.7668,30.1375 C22.6758,30.1375 22.6478,30.0755 22.6418,30.0575 C22.6348,30.0375 22.6318,30.0125 22.6318,29.9775 C22.6318,29.9305 22.6448,29.8895 22.6698,29.8575 C22.7078,29.8085 22.7748,29.7985 22.8648,29.7985 C22.9568,29.7985 23.0288,29.7945 23.0788,29.7855 C23.1348,29.7755 23.1578,29.7625 23.1648,29.7575 C23.1748,29.7505 23.1808,29.7435 23.1828,29.7385 C23.1878,29.7215 23.1908,29.7015 23.1908,29.6785 C23.1938,29.6125 23.1968,29.5485 23.1978,29.4805 L23.1978,29.4805 L23.2028,29.2745 C23.2048,29.2075 23.2058,29.1415 23.2058,29.0785 L23.20505,27.395625 L23.20505,27.395625 L23.2028,27.3175 L23.1978,27.1705 C23.1968,27.1225 23.1958,27.0695 23.1958,27.0125 C23.1958,26.9365 23.1858,26.8925 23.1788,26.8695 C23.1708,26.8465 23.1598,26.8315 23.1408,26.8205 C23.1238,26.8105 23.0898,26.7965 23.0268,26.7895 C22.9648,26.7835 22.8808,26.7805 22.7768,26.7805 C22.6738,26.7805 22.6448,26.7095 22.6388,26.6875 C22.6308,26.6625 22.6268,26.6345 22.6268,26.6015 C22.6268,26.5705 22.6338,26.5405 22.6468,26.5145 C22.6698,26.4685 22.7148,26.4415 22.7668,26.4415 Z M58.4125,26.3388 C58.4695,26.3388 58.5185,26.3748 58.5375,26.4338 C58.5445,26.4538 58.5605,26.5068 58.5875,26.5928 C58.6265,26.7348 58.6605,26.8468 58.6875,26.9288 C58.7145,27.0128 58.7365,27.0768 58.7545,27.1238 L58.7545,27.1238 L58.770537,27.1668 C58.7799444,27.1921333 58.7868333,27.2108 58.7915,27.2228 C58.8025,27.2528 58.8075,27.2688 58.8075,27.2878 C58.8075,27.3298 58.7835,27.3658 58.7365,27.3938 C58.6485,27.4468 58.5445,27.4228 58.4915,27.3478 L58.4915,27.3478 L58.4855,27.3388 C58.3755,27.1408 58.2615,26.9988 58.1465,26.9178 C58.0365,26.8398 57.8995,26.7998 57.7405,26.7998 L57.7405,26.7998 L57.1435,26.7998 C57.1365,26.8098 57.1215,26.8508 57.1215,27.0128 L57.1215,27.0128 L57.1215,29.0788 C57.1215,29.1418 57.1225,29.2068 57.1235,29.2748 L57.1235,29.2748 L57.1285,29.4808 C57.1305,29.5488 57.1325,29.6128 57.1355,29.6738 C57.1365,29.7018 57.1385,29.7218 57.1435,29.7388 C57.1455,29.7438 57.1525,29.7508 57.1615,29.7578 C57.1685,29.7628 57.1915,29.7758 57.2475,29.7858 C57.2975,29.7948 57.3695,29.7988 57.4615,29.7988 C57.5515,29.7988 57.6195,29.8088 57.6575,29.8578 C57.6825,29.8898 57.6945,29.9298 57.6945,29.9778 C57.6945,30.0118 57.6915,30.0368 57.6855,30.0568 C57.6785,30.0768 57.6505,30.1378 57.5595,30.1378 C57.5465,30.1378 57.5315,30.1368 57.5135,30.1348 C57.4865,30.1318 57.3895,30.1328 57.2005,30.1308 C57.0995,30.1288 56.9595,30.1278 56.7805,30.1278 L56.65375,30.1279875 C56.5345,30.1283625 56.43775,30.1293 56.3635,30.1308 C56.1765,30.1328 56.0785,30.1318 56.0525,30.1348 C56.0345,30.1368 56.0195,30.1378 56.0065,30.1378 C55.9145,30.1378 55.8865,30.0758 55.8805,30.0568 C55.8745,30.0368 55.8705,30.0128 55.8705,29.9778 C55.8705,29.9298 55.8835,29.8898 55.9085,29.8578 C55.9465,29.8088 56.0145,29.7988 56.1045,29.7988 C56.1965,29.7988 56.2685,29.7948 56.3175,29.7858 C56.3745,29.7758 56.3965,29.7628 56.4045,29.7578 C56.4135,29.7508 56.4205,29.7438 56.4215,29.7388 C56.4275,29.7218 56.4295,29.7018 56.4295,29.6788 C56.4325,29.6128 56.4355,29.5488 56.4365,29.4808 L56.4365,29.4808 L56.4415,29.2748 C56.4435,29.2068 56.4445,29.1418 56.4445,29.0788 L56.4445,29.0788 L56.4445,27.0128 C56.4445,26.9408 56.4415,26.8848 56.4355,26.8498 C56.4305,26.8148 56.4225,26.8048 56.4225,26.8048 C56.3945,26.8018 56.3635,26.7998 56.3245,26.7998 L56.3245,26.7998 L55.7905,26.7998 C55.7125,26.7998 55.6415,26.8148 55.5775,26.8438 C55.5095,26.8738 55.4455,26.9138 55.3875,26.9638 C55.3275,27.0148 55.2715,27.0728 55.2225,27.1378 C55.1695,27.2068 55.1185,27.2768 55.0705,27.3468 C55.0425,27.3948 55.0015,27.4108 54.9725,27.4148 C54.9595,27.4168 54.9375,27.4178 54.9085,27.4178 C54.7485,27.4178 54.7435,27.3008 54.7435,27.2878 C54.7435,27.2668 54.7495,27.2488 54.7585,27.2278 C54.7601667,27.2241333 54.7623889,27.2188 54.7652037,27.2118741 L54.7895,27.1518 C54.8055,27.1118 54.8295,27.0488 54.8595,26.9638 C54.8905,26.8778 54.9315,26.7568 54.9835,26.6008 C54.9845,26.5958 54.9885,26.5788 54.9935,26.5568 C54.9985,26.5338 55.0035,26.5108 55.0085,26.4888 C55.0155,26.4588 55.0255,26.4328 55.0375,26.4098 C55.0735,26.3458 55.1265,26.3388 55.1485,26.3388 C55.1955,26.3388 55.2365,26.3518 55.2705,26.3768 C55.2885,26.3898 55.3075,26.4028 55.3275,26.4168 C55.3445,26.4278 55.3645,26.4388 55.3885,26.4488 C55.4025,26.4548 55.4265,26.4618 55.4715,26.4618 L55.4715,26.4618 L58.1085,26.4618 C58.1485,26.4618 58.1705,26.4548 58.1825,26.4498 C58.2065,26.4388 58.2285,26.4278 58.2475,26.4158 C58.2675,26.4028 58.2845,26.3908 58.2985,26.3798 C58.3315,26.3528 58.3715,26.3388 58.4125,26.3388 Z M36.744,26.717 C36.57,26.717 36.419,26.746 36.297,26.803 C36.174,26.861 36.07,26.937 35.987,27.03 C35.904,27.125 35.837,27.232 35.789,27.348 C35.739,27.47 35.7,27.592 35.674,27.71 C35.647,27.83 35.629,27.943 35.622,28.047 C35.614,28.153 35.61,28.239 35.61,28.302 C35.61,28.464 35.631,28.641 35.674,28.827 C35.715,29.011 35.783,29.184 35.874,29.342 C35.963,29.496 36.081,29.626 36.226,29.728 C36.366,29.827 36.54,29.877 36.744,29.877 C36.924,29.877 37.077,29.851 37.2,29.801 C37.323,29.751 37.427,29.683 37.509,29.601 C37.592,29.519 37.659,29.422 37.708,29.316 C37.759,29.205 37.797,29.09 37.821,28.973 C37.847,28.854 37.863,28.735 37.871,28.619 C37.879,28.5 37.883,28.392 37.883,28.297 C37.883,28.129 37.862,27.948 37.819,27.759 C37.778,27.574 37.71,27.401 37.617,27.246 C37.527,27.093 37.407,26.965 37.262,26.864 C37.123,26.766 36.948,26.717 36.744,26.717 Z M46.2205,27.4148 C46.2045,27.4548 46.1875,27.4988 46.1695,27.5468 C46.1315,27.6448 46.0925,27.7508 46.0525,27.8658 C46.0115,27.9818 45.9735,28.0908 45.9375,28.1938 C45.9015,28.2958 45.8725,28.3828 45.8505,28.4558 C45.8435,28.4768 45.8385,28.4948 45.8335,28.5088 C45.8525,28.5098 45.8775,28.5098 45.9105,28.5098 L46.6165,28.5098 Z M41.4903,26.7803 C41.4203,26.7803 41.3623,26.7833 41.3193,26.7893 C41.2903,26.7933 41.2683,26.8013 41.2543,26.8123 C41.2413,26.8233 41.2343,26.8453 41.2313,26.8613 C41.2223,26.9003 41.2183,26.9583 41.2183,27.0323 L41.2183,27.0323 L41.2183,28.2353 L41.5243,28.2353 C41.6573,28.2353 41.7693,28.2153 41.8573,28.1753 L41.8573,28.1753 L41.9398926,28.1313 C41.9913,28.0993 42.0353,28.0619667 42.0713,28.0193 C42.1253,27.9553 42.1663,27.8773 42.1923,27.7903 C42.2183,27.6983 42.2323,27.5993 42.2323,27.4983 C42.2323,27.3983 42.2163,27.3023 42.1863,27.2133 C42.1563,27.1273 42.1103,27.0513 42.0503,26.9883 C41.9903,26.9253 41.9133,26.8743 41.8213,26.8373 C41.7293,26.7993 41.6173,26.7803 41.4903,26.7803 Z M19.4399,26.7803 C19.3699,26.7803 19.3119,26.7833 19.2689,26.7893 C19.2399,26.7933 19.2179,26.8013 19.2039,26.8123 C19.1909,26.8233 19.1839,26.8453 19.1809,26.8613 C19.1719,26.9003 19.1679,26.9583 19.1679,27.0323 L19.1679,27.0323 L19.1679,28.2353 L19.4739,28.2353 C19.6059,28.2353 19.7189,28.2153 19.8069,28.1753 L19.8069,28.1753 L19.8894926,28.1313 C19.9409,28.0993 19.9849,28.0619667 20.0209,28.0193 C20.0749,27.9553 20.1159,27.8773 20.1409,27.7903 C20.1679,27.6983 20.1819,27.5993 20.1819,27.4983 C20.1819,27.3983 20.1659,27.3023 20.1359,27.2133 C20.1059,27.1273 20.0599,27.0513 19.9999,26.9883 C19.9399,26.9253 19.8619,26.8743 19.7709,26.8373 C19.6789,26.7993 19.5669,26.7803 19.4399,26.7803 Z M4.085,6.4826 C5.695,6.4826 6.91,7.2696 7.806,9.2266 L11.921,18.9026 C12.544,20.3666 13.471,21.8136 14.868,21.8136 C15.232,21.8136 15.627,21.7196 16.052,21.4966 L16.144,21.6236 C15.719,22.6576 14.746,23.1036 13.683,23.1036 C12.18,23.1036 11.025,22.1176 10.236,20.2226 L9.264,17.9156 L3.706,17.9156 L3.539,18.2976 C3.235,18.9976 2.825,19.9056 3.159,20.3986 L3.159,20.5576 L1.13686838e-13,20.5576 L1.13686838e-13,20.3986 C0.668,19.8726 1.58,17.6936 1.868,17.0566 L5.225,9.2426 C4.663,8.2396 3.676,7.8106 2.688,7.8106 C2.308,7.8106 1.914,7.8746 1.504,8.0016 L1.413,7.8746 C2.005,7.0306 3.068,6.4826 4.085,6.4826 Z M58.1408,8.7338 C61.7548,8.7338 64.8538,10.9768 64.8538,14.7648 C64.8538,18.5528 61.7548,20.7968 58.1408,20.7968 C54.5268,20.7968 51.4288,18.5528 51.4288,14.7648 C51.4288,10.9768 54.5268,8.7338 58.1408,8.7338 Z M21.1543,8.8131 C23.5693,8.8131 25.1483,9.6411 25.9533,10.0711 L25.2693,12.4891 L25.1183,12.4891 C24.0853,11.1681 22.4003,10.6591 20.9113,10.6591 C18.5573,10.6591 16.2943,11.8531 16.2943,14.7171 C16.2943,17.4381 18.1633,18.8381 20.8813,18.8381 C22.5513,18.8381 23.7363,18.3451 24.2833,17.9641 L24.2833,16.2451 C23.6903,16.2451 21.6553,16.2931 20.2583,16.8331 L20.1523,16.7221 L21.4583,14.3671 L26.4693,14.3671 L26.4693,14.5261 C26.2113,15.0201 26.0903,15.8471 26.0903,16.5631 C26.0903,17.3121 26.2273,18.1701 26.5153,18.7901 L26.5153,18.9501 C25.1483,19.8891 23.0833,20.7161 20.7443,20.7161 C17.2063,20.7161 14.1383,18.7591 14.1383,14.8291 C14.1383,10.8021 17.3273,8.8131 21.1543,8.8131 Z M65.764,6.5854 C66.963,6.5854 68.041,6.9834 69.727,8.9724 L76.683,17.1364 L76.744,17.1364 L76.744,11.2954 C76.744,10.6584 76.744,9.6564 76.196,9.1314 L76.196,8.9724 L79.371,8.9724 L79.371,9.1314 C78.808,9.6564 78.808,10.6584 78.808,11.2954 L78.808,17.0564 C78.808,17.6934 78.808,19.8734 79.371,20.3984 L79.371,20.5584 L76.258,20.5584 L76.258,20.3984 C76.258,19.5864 75.665,18.9334 75.103,18.2984 L69.651,11.9004 L69.591,11.9004 L69.591,17.0564 C69.591,17.6934 69.591,19.8734 70.152,20.3984 L70.152,20.5584 L67.009,20.5584 L67.009,20.3984 C67.4642941,19.9351647 67.5178581,18.1834346 67.5241598,17.3400853 L67.525,9.6564 C66.659,8.4474 65.566,7.8104 64.108,7.8104 C63.728,7.8104 63.379,7.8744 63.03,8.0024 L62.939,7.8744 C63.638,6.8714 64.746,6.5854 65.764,6.5854 Z M35.7169,8.9716 L35.7169,9.1316 C35.5659,9.4026 35.7329,9.9746 36.0359,10.6596 L38.8909,17.0566 C39.1769,17.6936 40.1609,19.8726 40.7079,20.3986 L40.7079,20.5576 L37.4939,20.5576 L37.4939,20.3986 C37.8439,19.8726 37.4179,18.9336 37.1289,18.2976 L36.9469,17.9156 L31.3739,17.9156 L31.2069,18.2976 C30.9339,18.9336 30.4779,19.8726 30.8269,20.3986 L30.8269,20.5576 L27.6079,20.5576 L27.6079,20.3986 C28.2609,19.8726 29.2019,17.6936 29.4759,17.0566 L31.9209,11.2956 C32.1949,10.6436 32.6339,9.6566 32.1789,9.1316 L32.1789,8.9716 L35.7169,8.9716 Z M41.0723,8.8131 L42.2873,8.9731 L50.0933,8.9731 L51.3073,8.8131 L51.4293,8.9081 L50.0173,11.5341 L49.8653,11.5341 C49.6983,11.1201 49.2273,10.8501 48.3613,10.8501 L46.4183,10.8501 L46.4183,17.0561 C46.4183,17.6931 46.4183,19.8731 47.0403,20.3981 L47.0403,20.5571 L43.6233,20.5571 L43.6233,20.3981 C44.2258556,19.9022667 44.2593309,17.9302142 44.2611906,17.1760053 L44.2613,10.8501 L42.5913,10.8501 C41.5733,10.8501 40.4803,11.1201 39.8723,11.5341 L39.7513,11.4391 L40.9203,8.8131 L41.0723,8.8131 Z M58.1408,10.6118 C55.7268,10.6118 53.6458,12.0758 53.6458,14.7648 C53.6458,17.4548 55.7268,18.9188 58.1408,18.9188 C60.5558,18.9188 62.6358,17.4548 62.6358,14.7648 C62.6358,12.0758 60.5558,10.6118 58.1408,10.6118 Z M34.0929,11.2006 L34.0319,11.2006 L31.9969,16.1016 L36.1879,16.1016 L34.0929,11.2006 Z M6.424,11.1846 L6.364,11.1846 L4.328,16.1016 L8.535,16.1016 L6.424,11.1846 Z M38.7945,0 C38.9915,0 39.1675,0.041 39.3185,0.122 C39.4675,0.202 39.5945,0.311 39.6945,0.444 C39.7935,0.576 39.8685,0.728 39.9165,0.894 C39.9625,1.058 39.9865,1.227 39.9865,1.397 C39.9865,1.71 39.9365,1.994 39.8385,2.243 C39.7425,2.488 39.6205,2.709 39.4775,2.899 C39.3355,3.088 39.1835,3.253 39.0255,3.39 C38.8725,3.522 38.7345,3.638 38.6145,3.734 C38.4925,3.83 38.3995,3.894 38.3305,3.929 C38.2265,3.981 38.2085,3.986 38.1815,3.986 C38.1465,3.986 38.0965,3.971 38.0615,3.898 C38.0445,3.862 38.0375,3.834 38.0375,3.808 C38.0375,3.755 38.0655,3.708 38.1145,3.68 C38.1205,3.676 38.1355,3.666 38.1635,3.64 C38.2065,3.606 38.2685,3.551 38.3545,3.474 C38.4385,3.399 38.5295,3.301 38.6265,3.183 C38.7235,3.064 38.8205,2.924 38.9165,2.766 C38.9715,2.677 39.0195,2.581 39.0635,2.477 C39.0425,2.485 39.0225,2.492 39.0015,2.499 C38.7415,2.577 38.4715,2.56 38.2485,2.45 C38.1205,2.387 38.0065,2.297 37.9105,2.184 C37.8155,2.071 37.7405,1.937 37.6895,1.783 C37.6385,1.632 37.6125,1.465 37.6125,1.287 C37.6125,1.115 37.6415,0.948 37.7005,0.792 C37.7585,0.636 37.8415,0.498 37.9445,0.383 C38.0485,0.266 38.1735,0.173 38.3165,0.104 C38.4615,0.035 38.6225,0 38.7945,0 Z M42.6446,0 C42.8416,0 43.0186,0.041 43.1686,0.122 C43.28035,0.182 43.379725,0.2583125 43.4646156,0.348828125 L43.5446,0.444 C43.6446,0.576 43.7186,0.728 43.7666,0.894 C43.8126,1.058 43.8366,1.227 43.8366,1.397 C43.8366,1.709 43.7866,1.994 43.6886,2.243 C43.5926,2.488 43.4706,2.709 43.3276,2.899 C43.1856,3.088 43.0336,3.253 42.8756,3.389 C42.7226,3.522 42.5846,3.638 42.4646,3.734 C42.3426,3.83 42.2506,3.893 42.1806,3.929 C42.0766,3.981 42.0586,3.986 42.0316,3.986 C41.9966,3.986 41.9466,3.971 41.9116,3.898 C41.8956,3.862 41.8876,3.834 41.8876,3.808 C41.8876,3.755 41.9156,3.708 41.9646,3.68 C41.9706,3.676 41.9856,3.666 42.0136,3.64 C42.0576,3.605 42.1196,3.551 42.2046,3.474 C42.2886,3.399 42.3796,3.301 42.4766,3.183 C42.5736,3.064 42.6716,2.924 42.7666,2.766 C42.8216,2.677 42.8696,2.581 42.9136,2.477 C42.8926,2.485 42.8726,2.492 42.8516,2.499 C42.5916,2.577 42.3216,2.56 42.0986,2.45 C41.9696,2.387 41.8566,2.297 41.7606,2.184 C41.6656,2.071 41.5906,1.937 41.5396,1.783 C41.4886,1.632 41.4626,1.465 41.4626,1.287 C41.4626,1.114 41.4926,0.948 41.5506,0.792 C41.6086,0.636 41.6916,0.498 41.7946,0.383 C41.8986,0.266 42.0236,0.173 42.1666,0.104 C42.3116,0.035 42.4726,0 42.6446,0 Z M46.4947,0 C46.6917,0 46.8677,0.041 47.0187,0.122 C47.1677,0.202 47.2947,0.311 47.3947,0.444 C47.4937,0.576 47.5687,0.728 47.6167,0.894 C47.6627,1.058 47.6867,1.227 47.6867,1.397 C47.6867,1.709 47.6367,1.994 47.5387,2.243 C47.4427,2.488 47.3207,2.709 47.1777,2.899 C47.0357,3.088 46.8837,3.253 46.7257,3.389 C46.5727,3.522 46.4347,3.638 46.3147,3.734 C46.1927,3.83 46.0997,3.893 46.0307,3.929 C45.9267,3.981 45.9087,3.986 45.8817,3.986 C45.8467,3.986 45.7967,3.971 45.7617,3.898 C45.7447,3.862 45.7377,3.834 45.7377,3.808 C45.7377,3.755 45.7657,3.708 45.8147,3.68 C45.8207,3.676 45.8357,3.666 45.8637,3.64 C45.9077,3.605 45.9697,3.551 46.0547,3.474 C46.1387,3.399 46.2297,3.301 46.3267,3.183 C46.4237,3.064 46.5207,2.924 46.6167,2.766 C46.6717,2.677 46.7197,2.581 46.7637,2.477 C46.7427,2.485 46.7227,2.492 46.7017,2.499 C46.4417,2.577 46.1717,2.56 45.9487,2.45 C45.8197,2.387 45.7067,2.297 45.6107,2.184 C45.5157,2.071 45.4407,1.937 45.3897,1.783 C45.3387,1.632 45.3127,1.465 45.3127,1.287 C45.3127,1.114 45.3427,0.948 45.4007,0.792 C45.4587,0.636 45.5407,0.498 45.6447,0.383 C45.7487,0.266 45.8737,0.173 46.0167,0.104 C46.1617,0.035 46.3227,0 46.4947,0 Z M35.1176,0.0006 C35.1716,0.0006 35.1996,0.0036 35.2226,0.0126 C35.2456,0.0226 35.2966,0.0536 35.2966,0.1366 C35.2966,0.1686 35.2946,0.2206 35.2916,0.2906 C35.2876,0.3586 35.2846,0.4386 35.2816,0.5286 C35.2776,0.6196 35.2746,0.7196 35.2716,0.8276 C35.2686,0.9356 35.2666,1.0446 35.2666,1.1556 L35.2666,3.1936 C35.2666,3.2986 35.2696,3.3796 35.2756,3.4346 C35.2796,3.4686 35.2886,3.4936 35.2996,3.5046 C35.3116,3.5166 35.3376,3.5246 35.3706,3.5276 C35.4256,3.5326 35.5036,3.5346 35.6016,3.5346 C35.6626,3.5346 35.7126,3.5736 35.7296,3.6336 C35.7376,3.6606 35.7406,3.6916 35.7406,3.7296 C35.7406,3.7676 35.7376,3.7926 35.7296,3.8136 C35.7206,3.8386 35.6906,3.8916 35.6016,3.8916 C35.5906,3.8916 35.5706,3.8906 35.5406,3.8896 C35.4876,3.8856 35.3856,3.8876 35.2216,3.8836 C35.1662667,3.88293333 35.1016,3.88226667 35.0276,3.8818963 L34.9096,3.8816 C34.8116,3.8816 34.7316,3.8826 34.6676,3.8836 C34.5416,3.8876 34.4596,3.8856 34.4046,3.8896 C34.3746,3.8906 34.3466,3.8916 34.3216,3.8916 C34.2376,3.8916 34.1996,3.8476 34.1836,3.8216 C34.1666,3.7926 34.1576,3.7616 34.1576,3.7296 C34.1576,3.6576 34.1796,3.6046 34.2226,3.5736 C34.2596,3.5456 34.3136,3.5346 34.4156,3.5346 C34.5046,3.5346 34.5496,3.5266 34.5726,3.5186 C34.5886,3.5136 34.5986,3.5046 34.6066,3.4876 C34.6166,3.4666 34.6286,3.4246 34.6326,3.3416 C34.6356,3.2626 34.6376,3.1536 34.6376,3.0206 L34.6376,0.9396 C34.6376,0.8796 34.6346,0.8306 34.6286,0.7956 C34.6256,0.7756 34.6176,0.7696 34.6156,0.7676 C34.6106,0.7646 34.5916,0.7526 34.5396,0.7476 C34.4876,0.7426 34.4126,0.7406 34.3166,0.7406 C34.2556,0.7406 34.2036,0.7096 34.1796,0.6566 C34.1656,0.6266 34.1576,0.5946 34.1576,0.5616 C34.1576,0.5106 34.1736,0.4706 34.2046,0.4446 C34.2226,0.4296 34.2416,0.4176 34.2636,0.4106 L34.2776,0.4066 C34.4096,0.3796 34.5366,0.3426 34.6556,0.2956 C34.7676,0.2526 34.8716,0.1836 34.9636,0.0916 C34.9756,0.0796 34.9866,0.0666 34.9956,0.0556 C35.0236,0.0196 35.0676,0.0006 35.1176,0.0006 Z M31.4955,2.3374 L31.4955,2.8104 L26.3535,2.8104 L26.3535,2.3374 L31.4955,2.3374 Z M54.6995,2.3374 L54.6995,2.8104 L49.5575,2.8104 L49.5575,2.3374 L54.6995,2.3374 Z M38.7995,0.336 C38.6985,0.336 38.6185,0.362 38.5555,0.417 C38.4865,0.477 38.4315,0.553 38.3915,0.642 C38.3635,0.704666667 38.3412778,0.771777778 38.3251296,0.842444444 L38.3055,0.951 C38.2895,1.066 38.2815,1.176 38.2815,1.276 C38.2815,1.38 38.2895,1.491 38.3055,1.607 C38.3205,1.718 38.3495,1.822 38.3915,1.916 C38.4315,2.005 38.4855,2.079 38.5525,2.135 C38.6135,2.186 38.6945,2.211 38.7995,2.211 C38.9055,2.211 38.9905,2.185 39.0585,2.131 C39.1325,2.072 39.1905,1.997 39.2335,1.908 C39.2785,1.814 39.3105,1.709 39.3285,1.597 C39.3475,1.48 39.3575,1.369 39.3575,1.266 C39.3575,1.16 39.3475,1.048 39.3285,0.933 C39.3105,0.822 39.2785,0.72 39.2315,0.628 C39.1875,0.54 39.1295,0.468 39.0575,0.412 C38.9905,0.361 38.9065,0.336 38.7995,0.336 Z M42.6496,0.336 C42.5486,0.336 42.4686,0.362 42.4066,0.417 C42.3366,0.477 42.2816,0.553 42.2416,0.642 C42.1996,0.736 42.1706,0.84 42.1556,0.951 C42.1396,1.067 42.1316,1.176 42.1316,1.276 C42.1316,1.38 42.1396,1.491 42.1556,1.607 C42.1706,1.718 42.1996,1.822 42.2416,1.916 C42.2816,2.005 42.3356,2.079 42.4026,2.135 C42.4636,2.186 42.5446,2.211 42.6496,2.211 C42.7556,2.211 42.8406,2.185 42.9086,2.131 C42.9826,2.072 43.0406,1.997 43.0836,1.908 C43.1286,1.814 43.1606,1.709 43.1786,1.596 C43.1976,1.48 43.2076,1.369 43.2076,1.266 C43.2076,1.16 43.1976,1.048 43.1786,0.933 C43.1606,0.822 43.1286,0.72 43.0816,0.628 C43.0376,0.54 42.9796,0.468 42.9076,0.412 C42.8406,0.361 42.7566,0.336 42.6496,0.336 Z M46.4997,0.336 C46.3987,0.336 46.3187,0.362 46.2567,0.417 C46.1867,0.477 46.1317,0.553 46.0917,0.642 C46.0497,0.736 46.0207,0.84 46.0057,0.951 C45.9897,1.067 45.9817,1.176 45.9817,1.276 C45.9817,1.38 45.9897,1.491 46.0057,1.607 C46.0207,1.718 46.0497,1.822 46.0917,1.916 C46.1317,2.005 46.1857,2.079 46.2527,2.135 C46.3137,2.186 46.3947,2.211 46.4997,2.211 C46.6057,2.211 46.6907,2.185 46.7587,2.131 C46.8327,2.072 46.8907,1.997 46.9337,1.908 C46.9787,1.814 47.0107,1.709 47.0287,1.596 C47.0477,1.48 47.0577,1.369 47.0577,1.266 C47.0577,1.16 47.0477,1.048 47.0287,0.933 C47.0107,0.822 46.9787,0.72 46.9317,0.628 C46.8877,0.54 46.8297,0.468 46.7577,0.412 C46.6907,0.361 46.6067,0.336 46.4997,0.336 Z"></path></svg>