<svg xmlns="http://www.w3.org/2000/svg" viewBox="0 0 300 140" fill="none" stroke="currentColor" stroke-width="1.2" stroke-linecap="round" stroke-linejoin="round">
  <path d="M10,130 C30,110 60,95 90,88 C120,81 145,82 165,78 C190,73 210,60 230,55 C250,50 270,48 290,52"></path>
  <path d="M50,108 C45,95 48,85 55,83 C52,92 50,102 50,108"></path>
  <path d="M55,83 C60,75 66,72 70,75"></path>
  <path d="M110,86 C108,74 113,65 120,64 C116,73 112,81 110,86"></path>
  <path d="M120,64 C126,57 132,55 135,59"></path>
  <path d="M185,72 C185,60 191,52 198,52 C193,60 188,67 185,72"></path>
  <path d="M198,52 C204,45 210,44 213,48"></path>
  <path d="M255,52 C257,41 264,34 271,35 C265,43 259,49 255,52"></path>
  <path d="M271,35 C277,28 283,28 285,33"></path>
  <path d="M80,92 C72,84 73,74 80,71 C82,80 83,87 80,92Z"></path>
  <path d="M150,76 C144,67 146,58 153,55 C154,64 154,71 150,76Z"></path>
  <path d="M220,57 C215,48 217,39 224,37 C225,46 224,53 220,57Z"></path>
</svg>