<svg xmlns="http://www.w3.org/2000/svg" viewBox="0 0 200 120" fill="none" stroke="currentColor" stroke-width="1.2" stroke-linecap="round" stroke-linejoin="round">
  <path d="M10,100 C40,85 80,70 120,58 C155,48 180,42 195,40"></path>
  <path d="M35,90 C28,75 32,62 42,60 C42,74 40,83 35,90Z"></path>
  <line x1="35" y1="90" x2="40" y2="67"></line>
  <path d="M65,78 C72,63 80,56 88,58 C82,70 75,77 65,78Z"></path>
  <line x1="65" y1="78" x2="80" y2="61"></line>
  <path d="M95,67 C88,52 92,40 102,38 C102,52 100,61 95,67Z"></path>
  <line x1="95" y1="67" x2="100" y2="45"></line>
  <path d="M130,55 C137,40 145,34 153,36 C147,48 140,54 130,55Z"></path>
  <line x1="130" y1="55" x2="144" y2="39"></line>
  <path d="M160,46 C153,31 157,19 167,17 C167,31 165,40 160,46Z"></path>
  <line x1="160" y1="46" x2="165" y2="23"></line>
  <circle cx="50" cy="88" r="4"></circle>
  <circle cx="110" cy="62" r="3.5"></circle>
  <circle cx="172" cy="38" r="3"></circle>
</svg>